<svg viewBox="0 0 537 242" fill="none" xmlns="http://www.w3.org/2000/svg" alt="" tabindex="-1" aria-hidden="true"> <rect opacity="0.01" y="47" width="20" height="20" fill="white"></rect> <path fill-rule="evenodd" clip-rule="evenodd" d="M15.8332 54.5V50.3333H12.4998V52L9.99984 49.5L1.6665 57.8333H4.1665V64.5H15.8332V57.8333H18.3332L15.8332 54.5ZM11.2498 63.6667H8.74984V58.6667H11.2498V63.6667ZM14.9998 57V63.6667H12.0832V57.8333H7.9165V63.6667H4.99984V57H3.67817L9.99984 50.6783L11.9107 52.5892L13.3332 54.0117V51.1667H14.9998V54.7775L15.1665 55L16.6665 57H14.9998Z" fill="#012169"></path> <path d="M38.336 53.128C38.336 54.488 37.552 55.816 36.112 56.184L38.528 61H37.024L34.752 56.344H32.608V61H31.248V50.04H34.96C37.28 50.04 38.336 51.432 38.336 53.128ZM32.608 55.336H34.784C36.016 55.336 36.928 54.744 36.928 53.176C36.928 51.768 36 51.064 34.752 51.064H32.608V55.336ZM43.5621 53.976C42.0581 53.976 41.5621 55.192 41.4661 56.52H45.4501C45.4501 55.016 45.0021 53.976 43.5621 53.976ZM43.5301 53.016C46.6501 53.016 46.6821 55.784 46.6821 56.744V57.368H41.4501C41.4341 58.824 41.9301 60.136 43.6741 60.136C44.5861 60.136 45.2901 59.944 46.1701 59.576L46.4901 60.408C45.5621 60.904 44.6181 61.128 43.5781 61.128C40.7941 61.128 40.1061 59.288 40.1061 57.112C40.1061 55.72 40.5861 53.016 43.5301 53.016ZM54.7063 61H53.4103V55.848C53.4103 54.76 53.2823 54.088 52.0503 54.088C51.3143 54.088 50.3383 54.472 49.6663 54.856V61H48.3543V53.192H49.6343L49.6503 53.864L49.6983 53.896C50.5783 53.336 51.6663 53.016 52.4183 53.016C54.5463 53.016 54.7063 54.36 54.7063 55.528V61ZM57.575 51.352L58.407 51.208V53.192H60.759V54.136H58.391V58.808C58.391 59.56 58.599 60.088 59.479 60.088C59.847 60.088 60.343 59.992 60.951 59.816L61.159 60.696C60.583 60.968 59.847 61.128 59.207 61.128C57.815 61.128 57.111 60.488 57.111 59.208V54.136H55.975V53.448L57.175 53.08L57.575 51.352ZM73.4175 57.096C73.4175 59.096 72.6015 61.128 69.8655 61.128C67.3055 61.128 66.5055 59.24 66.5055 57.128C66.5055 55.048 67.4655 53.016 70.0255 53.016C72.6335 53.016 73.4175 55.048 73.4175 57.096ZM72.0575 57.128C72.0575 55.736 71.7535 54.024 70.0255 54.024C68.2975 54.024 67.8655 55.656 67.8655 57.128C67.8655 58.68 68.1855 60.12 70.0255 60.12C71.7215 60.12 72.0575 58.536 72.0575 57.128ZM76.5046 53.192L76.5526 54.6C76.5686 54.6 76.5686 54.6 76.5846 54.616C77.2886 53.496 78.5046 53.016 79.5286 53.016V54.28C78.7126 54.296 77.5286 54.52 76.6006 55.672V61H75.2726V53.192H76.5046ZM96.0175 61H94.7055V55.832C94.7055 54.712 94.4815 54.088 93.2815 54.088C92.5935 54.088 91.6175 54.376 91.0255 54.76C91.1055 55.112 91.1215 55.544 91.1215 55.816V61H89.8255V55.56C89.8255 54.536 89.3295 54.088 88.5615 54.088C87.7935 54.088 86.9295 54.424 86.2415 54.856V61H84.9455V53.192H86.2095L86.2255 53.88L86.2895 53.928C87.1535 53.352 88.1295 53.016 88.9295 53.016C89.7615 53.016 90.4175 53.304 90.8175 53.96C91.5695 53.432 92.7375 53.016 93.6335 53.016C95.8415 53.016 96.0175 54.472 96.0175 55.624V61ZM104.645 57.096C104.645 59.096 103.829 61.128 101.093 61.128C98.533 61.128 97.733 59.24 97.733 57.128C97.733 55.048 98.693 53.016 101.253 53.016C103.861 53.016 104.645 55.048 104.645 57.096ZM103.285 57.128C103.285 55.736 102.981 54.024 101.253 54.024C99.525 54.024 99.093 55.656 99.093 57.128C99.093 58.68 99.413 60.12 101.253 60.12C102.949 60.12 103.285 58.536 103.285 57.128ZM107.732 53.192L107.78 54.6C107.796 54.6 107.796 54.6 107.812 54.616C108.516 53.496 109.732 53.016 110.756 53.016V54.28C109.94 54.296 108.756 54.52 107.828 55.672V61H106.5V53.192H107.732ZM112.796 51.352L113.628 51.208V53.192H115.98V54.136H113.612V58.808C113.612 59.56 113.82 60.088 114.7 60.088C115.068 60.088 115.564 59.992 116.172 59.816L116.38 60.696C115.804 60.968 115.068 61.128 114.428 61.128C113.036 61.128 112.332 60.488 112.332 59.208V54.136H111.196V53.448L112.396 53.08L112.796 51.352ZM120.669 53.016C121.181 53.016 121.693 53.048 122.125 53.192C122.989 53.144 123.837 53.08 124.685 53.016V53.96H123.261L123.229 54.024C123.645 54.408 123.821 55.064 123.821 55.608C123.821 57.112 122.573 58.216 120.701 58.216H119.677C118.877 58.216 118.365 58.712 118.365 59.16C118.365 59.528 118.637 59.784 119.309 59.784H121.293C123.405 59.784 124.461 60.472 124.461 61.864C124.461 63.352 122.925 64.456 120.509 64.456C117.933 64.456 117.133 63.4 117.133 62.312C117.133 61.48 117.677 60.856 118.221 60.568C117.517 60.408 117.229 59.88 117.229 59.32C117.229 58.472 117.933 57.848 118.653 57.72V57.64C118.109 57.336 117.677 56.664 117.677 55.672C117.677 53.816 119.229 53.016 120.669 53.016ZM121.117 60.712H119.405C118.861 60.92 118.413 61.464 118.413 62.056C118.413 62.824 118.989 63.496 120.653 63.496C122.013 63.496 123.117 62.952 123.117 61.928C123.117 61.288 122.669 60.712 121.117 60.712ZM122.477 55.592C122.477 54.856 122.061 54.008 120.733 54.008C119.661 54.008 119.005 54.632 119.005 55.608C119.005 56.632 119.709 57.256 120.717 57.256C121.741 57.256 122.477 56.664 122.477 55.592ZM129.338 53.016C131.018 53.016 131.994 53.704 131.994 55.624V61H130.842L130.762 60.152C130.762 60.152 130.746 60.136 130.73 60.136C129.53 61.096 128.522 61.112 128.026 61.112C126.218 61.112 125.722 59.864 125.722 58.936C125.722 57.464 126.842 56.648 128.378 56.568L130.73 56.44V55.88C130.73 54.6 130.394 54.04 129.05 54.04C128.266 54.04 127.37 54.232 126.586 54.488C126.506 54.2 126.426 53.912 126.33 53.624C127.226 53.24 128.378 53.016 129.338 53.016ZM130.73 57.272L128.698 57.4C127.642 57.464 127.114 57.976 127.114 58.808C127.114 59.736 127.562 60.2 128.57 60.2C129.242 60.2 129.994 59.848 130.73 59.208V57.272ZM137.032 53.016C137.544 53.016 138.056 53.048 138.488 53.192C139.352 53.144 140.2 53.08 141.049 53.016V53.96H139.624L139.592 54.024C140.008 54.408 140.184 55.064 140.184 55.608C140.184 57.112 138.936 58.216 137.064 58.216H136.04C135.24 58.216 134.728 58.712 134.728 59.16C134.728 59.528 135 59.784 135.672 59.784H137.656C139.768 59.784 140.824 60.472 140.824 61.864C140.824 63.352 139.288 64.456 136.872 64.456C134.296 64.456 133.496 63.4 133.496 62.312C133.496 61.48 134.04 60.856 134.584 60.568C133.88 60.408 133.592 59.88 133.592 59.32C133.592 58.472 134.296 57.848 135.016 57.72V57.64C134.472 57.336 134.04 56.664 134.04 55.672C134.04 53.816 135.592 53.016 137.032 53.016ZM137.48 60.712H135.768C135.224 60.92 134.776 61.464 134.776 62.056C134.776 62.824 135.352 63.496 137.016 63.496C138.376 63.496 139.48 62.952 139.48 61.928C139.48 61.288 139.032 60.712 137.48 60.712ZM138.84 55.592C138.84 54.856 138.424 54.008 137.096 54.008C136.024 54.008 135.368 54.632 135.368 55.608C135.368 56.632 136.072 57.256 137.08 57.256C138.104 57.256 138.84 56.664 138.84 55.592ZM145.718 53.976C144.214 53.976 143.718 55.192 143.622 56.52H147.606C147.606 55.016 147.158 53.976 145.718 53.976ZM145.686 53.016C148.806 53.016 148.838 55.784 148.838 56.744V57.368H143.606C143.59 58.824 144.086 60.136 145.83 60.136C146.742 60.136 147.446 59.944 148.326 59.576L148.646 60.408C147.718 60.904 146.774 61.128 145.734 61.128C142.95 61.128 142.262 59.288 142.262 57.112C142.262 55.72 142.742 53.016 145.686 53.016Z" fill="#012169"></path> <rect opacity="0.01" y="73" width="20" height="20" fill="white"></rect> <rect opacity="0.01" y="73" width="20" height="20" fill="white"></rect> <path fill-rule="evenodd" clip-rule="evenodd" d="M16.2007 79.6673H17.4582C17.9482 79.6836 18.3362 80.087 18.3332 80.5773V81.224C18.3373 81.7211 17.9527 82.1351 17.4565 82.1673H17.2065L17.4999 82.7673V88.7982C17.4638 89.2929 17.0484 89.6739 16.5524 89.6673H15.0415C14.5602 89.6682 14.1688 89.2795 14.1665 88.7982V88.0007H5.8332V88.7982C5.83091 89.2795 5.43956 89.6682 4.9582 89.6673H3.4457C2.95013 89.6735 2.53555 89.2925 2.49987 88.7982V82.7673L2.79154 82.1673H2.54154C2.04607 82.1342 1.66234 81.7205 1.66654 81.224V80.5773C1.66356 80.087 2.05153 79.6836 2.54154 79.6673H3.79904L4.86654 77.0273C5.04804 76.6178 5.44799 76.3484 5.8957 76.334H14.1032C14.5517 76.3479 14.9525 76.6178 15.134 77.0282L16.2007 79.6673ZM17.4581 81.334C17.4785 81.3001 17.4927 81.2629 17.4998 81.224V80.5773C17.4964 80.5461 17.4793 80.518 17.4531 80.5007H15.6398L14.3606 77.3398C14.3071 77.2446 14.2115 77.1806 14.1031 77.1673H5.8956C5.78769 77.1807 5.69248 77.2443 5.63894 77.339L4.35977 80.5007H2.54144C2.51842 80.5201 2.50355 80.5474 2.49977 80.5773V81.224C2.50576 81.2677 2.52883 81.3073 2.56394 81.334H4.1281L3.3331 82.9607V88.7982C3.3685 88.8159 3.40646 88.828 3.4456 88.834H4.9581L4.99977 87.1673H14.9998V88.7982L16.5523 88.834C16.5989 88.8298 16.6419 88.807 16.6714 88.7707L16.6664 82.9607L15.8748 81.334H17.4581ZM4.27782 84.317C4.5038 83.7721 5.03582 83.417 5.62574 83.4173C6.43026 83.4192 7.08186 84.0711 7.08324 84.8757C7.08324 85.4656 6.72784 85.9974 6.18279 86.2231C5.63775 86.4487 5.01043 86.3238 4.59341 85.9066C4.1764 85.4893 4.05183 84.8619 4.27782 84.317ZM5.04772 85.1154C5.14472 85.3489 5.37287 85.501 5.62574 85.5007C5.97021 85.4993 6.24899 85.2201 6.2499 84.8757C6.2499 84.6228 6.09754 84.3948 5.86389 84.2981C5.63024 84.2015 5.36135 84.2551 5.18267 84.434C5.00399 84.6129 4.95072 84.8819 5.04772 85.1154ZM14.3757 83.4173C13.7858 83.417 13.2538 83.7721 13.0278 84.317C12.8018 84.8619 12.9264 85.4893 13.3434 85.9066C13.7604 86.3238 14.3877 86.4487 14.9328 86.2231C15.4778 85.9974 15.8332 85.4656 15.8332 84.8757C15.8319 84.0711 15.1803 83.4192 14.3757 83.4173ZM14.3757 85.5007C14.1229 85.501 13.8947 85.3489 13.7977 85.1154C13.7007 84.8819 13.754 84.6129 13.9327 84.434C14.1114 84.2551 14.3802 84.2015 14.6139 84.2981C14.8475 84.3948 14.9999 84.6228 14.9999 84.8757C14.9994 85.2203 14.7204 85.4997 14.3757 85.5007Z" fill="#012169"></path> <path d="M35.744 75.864C36.928 75.864 38 76.2 38.64 76.648L38.112 77.624C37.44 77.16 36.72 76.936 35.728 76.936C33.504 76.936 32.352 78.744 32.352 81.608C32.352 83.96 32.896 86.04 35.696 86.04C36.24 86.04 37.28 85.944 38.384 85.368L38.784 86.344C38.016 86.856 36.528 87.128 35.552 87.128C32.144 87.128 30.928 84.936 30.928 81.592C30.928 79.24 31.952 75.864 35.744 75.864ZM43.593 79.016C45.273 79.016 46.249 79.704 46.249 81.624V87H45.097L45.017 86.152C45.017 86.152 45.001 86.136 44.985 86.136C43.785 87.096 42.777 87.112 42.281 87.112C40.473 87.112 39.977 85.864 39.977 84.936C39.977 83.464 41.097 82.648 42.633 82.568L44.985 82.44V81.88C44.985 80.6 44.649 80.04 43.305 80.04C42.521 80.04 41.625 80.232 40.841 80.488C40.761 80.2 40.681 79.912 40.585 79.624C41.481 79.24 42.633 79.016 43.593 79.016ZM44.985 83.272L42.953 83.4C41.897 83.464 41.369 83.976 41.369 84.808C41.369 85.736 41.817 86.2 42.825 86.2C43.497 86.2 44.249 85.848 44.985 85.208V83.272ZM49.5115 79.192L49.5595 80.6C49.5755 80.6 49.5755 80.6 49.5915 80.616C50.2955 79.496 51.5115 79.016 52.5355 79.016V80.28C51.7195 80.296 50.5355 80.52 49.6075 81.672V87H48.2795V79.192H49.5115ZM59.2324 79.8L59.3124 79.864C59.9524 79.352 60.8164 79.016 61.6484 79.016C63.8884 79.016 64.5764 80.808 64.5764 82.92C64.5764 85.208 63.7444 87.144 61.4404 87.144C60.8324 87.144 59.8884 87.048 59.2484 86.6V90.328H57.9524V79.192H59.2164L59.2324 79.8ZM59.2644 80.888V85.608C59.6004 85.864 60.5124 86.168 61.2164 86.168C62.3204 86.168 63.2484 85.336 63.2484 82.888C63.2484 80.728 62.4644 80.088 61.2964 80.088C60.6564 80.088 59.6324 80.52 59.2644 80.888ZM69.5861 79.016C71.2661 79.016 72.2421 79.704 72.2421 81.624V87H71.0901L71.0101 86.152C71.0101 86.152 70.9941 86.136 70.9781 86.136C69.7781 87.096 68.7701 87.112 68.2741 87.112C66.4661 87.112 65.9701 85.864 65.9701 84.936C65.9701 83.464 67.0901 82.648 68.6261 82.568L70.9781 82.44V81.88C70.9781 80.6 70.6421 80.04 69.2981 80.04C68.5141 80.04 67.6181 80.232 66.8341 80.488C66.7541 80.2 66.6741 79.912 66.5781 79.624C67.4741 79.24 68.6261 79.016 69.5861 79.016ZM70.9781 83.272L68.9461 83.4C67.8901 83.464 67.3621 83.976 67.3621 84.808C67.3621 85.736 67.8101 86.2 68.8181 86.2C69.4901 86.2 70.2421 85.848 70.9781 85.208V83.272ZM76.9766 85.704L78.9926 79.192H80.2886C79.2646 82.296 78.2406 85.4 77.2006 88.488C76.7206 89.928 76.0326 90.456 74.8806 90.456C74.5606 90.456 74.0166 90.424 73.1846 90.184C73.2326 89.864 73.3126 89.544 73.3766 89.208C73.9526 89.32 74.3046 89.384 74.6726 89.384C75.2646 89.384 75.6806 89.224 76.0006 88.248L76.3206 87.288C75.3606 84.6 74.4166 81.896 73.4566 79.192H74.8006C75.5046 81.368 76.2086 83.528 76.8966 85.704H76.9766ZM92.5388 87H91.2268V81.832C91.2268 80.712 91.0028 80.088 89.8028 80.088C89.1147 80.088 88.1388 80.376 87.5468 80.76C87.6267 81.112 87.6428 81.544 87.6428 81.816V87H86.3467V81.56C86.3467 80.536 85.8507 80.088 85.0827 80.088C84.3147 80.088 83.4507 80.424 82.7627 80.856V87H81.4667V79.192H82.7307L82.7467 79.88L82.8107 79.928C83.6747 79.352 84.6507 79.016 85.4507 79.016C86.2828 79.016 86.9387 79.304 87.3387 79.96C88.0908 79.432 89.2587 79.016 90.1547 79.016C92.3628 79.016 92.5388 80.472 92.5388 81.624V87ZM97.7103 79.976C96.2063 79.976 95.7103 81.192 95.6143 82.52H99.5983C99.5983 81.016 99.1503 79.976 97.7103 79.976ZM97.6783 79.016C100.798 79.016 100.83 81.784 100.83 82.744V83.368H95.5983C95.5823 84.824 96.0783 86.136 97.8223 86.136C98.7343 86.136 99.4383 85.944 100.318 85.576L100.638 86.408C99.7103 86.904 98.7663 87.128 97.7263 87.128C94.9423 87.128 94.2543 85.288 94.2543 83.112C94.2543 81.72 94.7343 79.016 97.6783 79.016ZM108.854 87H107.558V81.848C107.558 80.76 107.43 80.088 106.198 80.088C105.462 80.088 104.486 80.472 103.814 80.856V87H102.502V79.192H103.782L103.798 79.864L103.846 79.896C104.726 79.336 105.814 79.016 106.566 79.016C108.694 79.016 108.854 80.36 108.854 81.528V87ZM111.723 77.352L112.555 77.208V79.192H114.907V80.136H112.539V84.808C112.539 85.56 112.747 86.088 113.627 86.088C113.995 86.088 114.491 85.992 115.099 85.816L115.307 86.696C114.731 86.968 113.995 87.128 113.355 87.128C111.963 87.128 111.259 86.488 111.259 85.208V80.136H110.123V79.448L111.323 79.08L111.723 77.352Z" fill="#012169"></path> <rect opacity="0.01" y="99" width="20" height="20" fill="white"></rect> <path fill-rule="evenodd" clip-rule="evenodd" d="M13.1773 117.333L10.1932 114.359L10.6815 112.534L6.46567 108.32L4.64984 108.809L1.6665 105.833L2.5265 102.609L5.04984 105.131L6.13317 104.048L3.609 101.531L6.8215 100.666L9.8065 103.64L9.31817 105.467L13.5348 109.679L15.3498 109.19L18.3332 112.166L17.474 115.391L14.9507 112.869L13.8673 113.952L16.389 116.474L13.1773 117.333ZM11.1223 114.108L13.4248 116.404L14.7815 116.039L12.6907 113.949L14.9507 111.69L17.0407 113.779L17.404 112.418L15.1023 110.12L13.2865 110.609L8.389 105.716L8.87734 103.891L6.574 101.595L5.21817 101.961L7.30817 104.05L5.04984 106.309L2.95984 104.22L2.59567 105.583L4.89734 107.88L6.714 107.392L11.6107 112.287L11.1223 114.108Z" fill="#012169"></path> <path d="M39.504 102.04V109.064C39.504 111.512 38.16 113.128 35.312 113.128C32.384 113.128 31.152 111.592 31.152 109.064V102.04H32.496V109.08C32.496 111.08 33.52 112.088 35.328 112.088C37.136 112.088 38.176 111.096 38.176 109.08L38.16 102.04H39.504ZM42.5706 103.352L43.4026 103.208V105.192H45.7546V106.136H43.3866V110.808C43.3866 111.56 43.5946 112.088 44.4746 112.088C44.8426 112.088 45.3386 111.992 45.9466 111.816L46.1546 112.696C45.5786 112.968 44.8426 113.128 44.2026 113.128C42.8106 113.128 42.1066 112.488 42.1066 111.208V106.136H40.9706V105.448L42.1706 105.08L42.5706 103.352ZM49.0198 113H47.7238V105.192H49.0198V113ZM49.2598 103.144C49.2598 103.592 48.8598 103.992 48.3798 103.992C47.9318 103.992 47.5318 103.592 47.5318 103.144C47.5318 102.664 47.9318 102.28 48.3798 102.28C48.8598 102.28 49.2598 102.664 49.2598 103.144ZM52.9003 101.624V113H51.6043V101.624H52.9003ZM56.7429 113H55.4469V105.192H56.7429V113ZM56.9829 103.144C56.9829 103.592 56.5829 103.992 56.1029 103.992C55.6549 103.992 55.2549 103.592 55.2549 103.144C55.2549 102.664 55.6549 102.28 56.1029 102.28C56.5829 102.28 56.9829 102.664 56.9829 103.144ZM60.0794 103.352L60.9114 103.208V105.192H63.2634V106.136H60.8954V110.808C60.8954 111.56 61.1034 112.088 61.9834 112.088C62.3514 112.088 62.8474 111.992 63.4554 111.816L63.6634 112.696C63.0874 112.968 62.3514 113.128 61.7114 113.128C60.3194 113.128 59.6154 112.488 59.6154 111.208V106.136H58.4794V105.448L59.6794 105.08L60.0794 103.352ZM66.5285 113H65.2325V105.192H66.5285V113ZM66.7685 103.144C66.7685 103.592 66.3685 103.992 65.8885 103.992C65.4405 103.992 65.0405 103.592 65.0405 103.144C65.0405 102.664 65.4405 102.28 65.8885 102.28C66.3685 102.28 66.7685 102.664 66.7685 103.144ZM72.169 105.976C70.665 105.976 70.169 107.192 70.073 108.52H74.057C74.057 107.016 73.609 105.976 72.169 105.976ZM72.137 105.016C75.257 105.016 75.289 107.784 75.289 108.744V109.368H70.057C70.041 110.824 70.537 112.136 72.281 112.136C73.193 112.136 73.897 111.944 74.777 111.576L75.097 112.408C74.169 112.904 73.225 113.128 72.185 113.128C69.401 113.128 68.713 111.288 68.713 109.112C68.713 107.72 69.193 105.016 72.137 105.016ZM76.6571 112.52L77.0731 111.624C78.0651 112.072 78.9291 112.152 79.4891 112.152C80.4811 112.152 81.2651 111.848 81.2651 110.904C81.2651 110.072 80.4651 109.784 79.5851 109.48C78.2251 109 76.9451 108.648 76.9451 107.208C76.9451 105.704 78.2091 105.016 79.7771 105.016C80.4331 105.016 81.4251 105.16 82.1131 105.576L81.7131 106.488C80.9131 106.168 80.3051 106.072 79.7611 106.072C78.9451 106.072 78.1771 106.36 78.1771 107.224C78.1771 107.896 79.2011 108.2 79.8411 108.408C81.1531 108.824 82.5291 109.24 82.5291 110.888C82.5291 112.456 81.2331 113.128 79.4411 113.128C78.5131 113.128 77.3611 112.92 76.6571 112.52Z" fill="#012169"></path> <rect opacity="0.01" y="123" width="20" height="20" fill="white"></rect> <path fill-rule="evenodd" clip-rule="evenodd" d="M7.27687 138C6.99222 137.508 6.46321 137.175 5.85577 137.167L5.71542 136.197L17.3815 135.245L18.3332 127.167H4.40782L4.1665 125.5H1.6665V126.333H3.44567L5.043 137.366C4.52113 137.647 4.1665 138.199 4.1665 138.833C4.1665 139.754 4.9127 140.5 5.83317 140.5C6.75365 140.5 7.49984 139.754 7.49984 138.833H13.3332C13.3332 139.754 14.0794 140.5 14.9998 140.5C15.9203 140.5 16.6665 139.754 16.6665 138.833C16.6665 137.913 15.9203 137.167 14.9998 137.167C14.3829 137.167 13.8443 137.502 13.5561 138H7.27687ZM14.1665 138.833C14.1665 139.294 14.5396 139.667 14.9998 139.667C15.4601 139.667 15.8332 139.294 15.8332 138.833C15.8332 138.373 15.4601 138 14.9998 138C14.5396 138 14.1665 138.373 14.1665 138.833ZM5.83317 138C6.29341 138 6.6665 138.373 6.6665 138.833C6.6665 139.294 6.29341 139.667 5.83317 139.667C5.37293 139.667 4.99984 139.294 4.99984 138.833C4.99984 138.373 5.37293 138 5.83317 138ZM5.62044 135.541L4.52849 128H17.3957L16.6348 134.471L5.6065 135.37L5.62044 135.541Z" fill="#012169"></path> <path d="M35.792 134.04V133.048H38.96V138.264C37.984 138.888 36.656 139.128 35.632 139.128C32.128 139.128 30.928 136.888 30.928 133.624C30.928 131.272 31.936 127.864 35.904 127.864C37.072 127.864 38.192 128.168 38.88 128.648L38.384 129.64C37.52 129.08 36.544 128.936 35.936 128.936C33.568 128.936 32.352 130.76 32.352 133.64C32.352 136.008 33.008 138.024 35.744 138.024C36.144 138.024 37.12 137.912 37.712 137.576V134.04H35.792ZM42.3296 131.192L42.3776 132.6C42.3936 132.6 42.3936 132.6 42.4096 132.616C43.1136 131.496 44.3296 131.016 45.3536 131.016V132.28C44.5376 132.296 43.3536 132.52 42.4256 133.672V139H41.0976V131.192H42.3296ZM53.1531 135.096C53.1531 137.096 52.3371 139.128 49.6011 139.128C47.0411 139.128 46.2411 137.24 46.2411 135.128C46.2411 133.048 47.2011 131.016 49.7611 131.016C52.3691 131.016 53.1531 133.048 53.1531 135.096ZM51.7931 135.128C51.7931 133.736 51.4891 132.024 49.7611 132.024C48.0331 132.024 47.6011 133.656 47.6011 135.128C47.6011 136.68 47.9211 138.12 49.7611 138.12C51.4571 138.12 51.7931 136.536 51.7931 135.128ZM58.2243 131.016C59.0243 131.016 59.9043 131.192 60.6083 131.64L60.1443 132.568C59.3763 132.152 58.8003 132.072 58.2883 132.072C56.7523 132.072 56.0323 133.288 56.0323 135.144C56.0323 136.76 56.4963 138.088 58.1923 138.088C58.9283 138.088 59.5363 137.944 60.4323 137.448L60.8323 138.312C60.1443 138.824 59.1523 139.128 58.1283 139.128C55.5683 139.128 54.6723 137.528 54.6723 135.192C54.6723 133.544 55.2963 131.016 58.2243 131.016ZM65.4984 131.976C63.9944 131.976 63.4984 133.192 63.4024 134.52H67.3864C67.3864 133.016 66.9384 131.976 65.4984 131.976ZM65.4664 131.016C68.5864 131.016 68.6184 133.784 68.6184 134.744V135.368H63.3864C63.3704 136.824 63.8664 138.136 65.6104 138.136C66.5224 138.136 67.2264 137.944 68.1064 137.576L68.4264 138.408C67.4984 138.904 66.5544 139.128 65.5144 139.128C62.7304 139.128 62.0424 137.288 62.0424 135.112C62.0424 133.72 62.5224 131.016 65.4664 131.016ZM71.6665 131.192L71.7145 132.6C71.7305 132.6 71.7305 132.6 71.7465 132.616C72.4505 131.496 73.6665 131.016 74.6905 131.016V132.28C73.8745 132.296 72.6905 132.52 71.7625 133.672V139H70.4345V131.192H71.6665ZM77.466 139H76.17V131.192H77.466V139ZM77.706 129.144C77.706 129.592 77.306 129.992 76.826 129.992C76.378 129.992 75.978 129.592 75.978 129.144C75.978 128.664 76.378 128.28 76.826 128.28C77.306 128.28 77.706 128.664 77.706 129.144ZM83.1065 131.976C81.6025 131.976 81.1065 133.192 81.0105 134.52H84.9945C84.9945 133.016 84.5465 131.976 83.1065 131.976ZM83.0745 131.016C86.1945 131.016 86.2265 133.784 86.2265 134.744V135.368H80.9945C80.9785 136.824 81.4745 138.136 83.2185 138.136C84.1305 138.136 84.8345 137.944 85.7145 137.576L86.0345 138.408C85.1065 138.904 84.1625 139.128 83.1225 139.128C80.3385 139.128 79.6505 137.288 79.6505 135.112C79.6505 133.72 80.1305 131.016 83.0745 131.016ZM87.5946 138.52L88.0106 137.624C89.0026 138.072 89.8666 138.152 90.4266 138.152C91.4186 138.152 92.2026 137.848 92.2026 136.904C92.2026 136.072 91.4026 135.784 90.5226 135.48C89.1626 135 87.8826 134.648 87.8826 133.208C87.8826 131.704 89.1466 131.016 90.7146 131.016C91.3706 131.016 92.3626 131.16 93.0506 131.576L92.6506 132.488C91.8506 132.168 91.2426 132.072 90.6986 132.072C89.8826 132.072 89.1146 132.36 89.1146 133.224C89.1146 133.896 90.1386 134.2 90.7786 134.408C92.0906 134.824 93.4666 135.24 93.4666 136.888C93.4666 138.456 92.1706 139.128 90.3786 139.128C89.4506 139.128 88.2986 138.92 87.5946 138.52Z" fill="#012169"></path> <path fill-rule="evenodd" clip-rule="evenodd" d="M16.541 153.166H3.45929C2.45031 153.188 1.64911 154.022 1.66679 155.031V162.968C1.64911 163.977 2.45031 164.81 3.45929 164.833H16.5426C17.551 164.809 18.3511 163.976 18.3335 162.968V155.031C18.3511 154.022 17.5499 153.188 16.541 153.166ZM17.5001 162.968C17.518 163.517 17.0897 163.977 16.541 163.999H3.45929C2.91051 163.977 2.48229 163.517 2.50012 162.968V155.031C2.48229 154.482 2.91051 154.021 3.45929 153.999H16.5426C17.0907 154.022 17.518 154.483 17.5001 155.031V162.968ZM7.08346 157.68C7.083 158.178 6.6792 158.582 6.18096 158.583H4.23596C3.73771 158.582 3.33392 158.178 3.33346 157.68V155.735C3.33392 155.237 3.73771 154.833 4.23596 154.833H6.18096C6.6792 154.833 7.083 155.237 7.08346 155.735V157.68ZM4.16679 155.735V157.68C4.16767 157.718 4.19813 157.748 4.23596 157.749H6.18096C6.21879 157.748 6.24924 157.718 6.25012 157.68V155.735C6.24924 155.697 6.21879 155.667 6.18096 155.666H4.23596C4.19813 155.667 4.16767 155.697 4.16679 155.735ZM4.16679 160.666H7.50012V161.499H4.16679V160.666ZM8.33346 160.666H11.6668V161.499H8.33346V160.666ZM15.8335 160.666H12.5001V161.499H15.8335V160.666Z" fill="#012169"></path> <path d="M32.736 154.04C34 157.112 35.264 160.216 36.512 163.304H36.608C37.872 160.216 39.152 157.112 40.4 154.04H41.904V165H40.576V156.808H40.528C39.408 159.544 38.288 162.28 37.152 165H35.936C34.816 162.344 33.712 159.656 32.608 156.984H32.56C32.56 159.656 32.544 162.344 32.544 165H31.232V154.04H32.736ZM45.8379 165H44.5419V157.192H45.8379V165ZM46.0779 155.144C46.0779 155.592 45.6779 155.992 45.1979 155.992C44.7499 155.992 44.3499 155.592 44.3499 155.144C44.3499 154.664 44.7499 154.28 45.1979 154.28C45.6779 154.28 46.0779 154.664 46.0779 155.144ZM54.5344 165H53.2384V159.848C53.2384 158.76 53.1104 158.088 51.8784 158.088C51.1424 158.088 50.1664 158.472 49.4944 158.856V165H48.1824V157.192H49.4624L49.4784 157.864L49.5264 157.896C50.4064 157.336 51.4944 157.016 52.2464 157.016C54.3744 157.016 54.5344 158.36 54.5344 159.528V165ZM58.1391 165H56.8431V157.192H58.1391V165ZM58.3791 155.144C58.3791 155.592 57.9791 155.992 57.4991 155.992C57.0511 155.992 56.6511 155.592 56.6511 155.144C56.6511 154.664 57.0511 154.28 57.4991 154.28C57.9791 154.28 58.3791 154.664 58.3791 155.144ZM71.5556 165H70.2436V159.832C70.2436 158.712 70.0196 158.088 68.8196 158.088C68.1316 158.088 67.1556 158.376 66.5636 158.76C66.6436 159.112 66.6596 159.544 66.6596 159.816V165H65.3636V159.56C65.3636 158.536 64.8676 158.088 64.0996 158.088C63.3316 158.088 62.4676 158.424 61.7796 158.856V165H60.4836V157.192H61.7476L61.7636 157.88L61.8276 157.928C62.6916 157.352 63.6676 157.016 64.4676 157.016C65.2996 157.016 65.9556 157.304 66.3556 157.96C67.1076 157.432 68.2756 157.016 69.1716 157.016C71.3796 157.016 71.5556 158.472 71.5556 159.624V165ZM75.6871 165.144C73.5591 165.144 73.4311 163.8 73.4311 162.648V157.192H74.7271V162.328C74.7271 163.416 74.8551 164.072 76.0711 164.072C76.6631 164.072 77.5911 163.752 78.3431 163.08V157.192H79.6231V165H78.3911L78.3431 164.088L78.3111 164.056C77.2871 164.968 76.2311 165.144 75.6871 165.144ZM92.5756 165H91.2636V159.832C91.2636 158.712 91.0396 158.088 89.8396 158.088C89.1516 158.088 88.1756 158.376 87.5836 158.76C87.6636 159.112 87.6796 159.544 87.6796 159.816V165H86.3836V159.56C86.3836 158.536 85.8876 158.088 85.1196 158.088C84.3516 158.088 83.4876 158.424 82.7996 158.856V165H81.5036V157.192H82.7676L82.7836 157.88L82.8476 157.928C83.7116 157.352 84.6876 157.016 85.4876 157.016C86.3196 157.016 86.9756 157.304 87.3756 157.96C88.1276 157.432 89.2956 157.016 90.1916 157.016C92.3996 157.016 92.5756 158.472 92.5756 159.624V165ZM102.181 157.016C102.981 157.016 103.861 157.192 104.565 157.64L104.101 158.568C103.333 158.152 102.757 158.072 102.245 158.072C100.709 158.072 99.9885 159.288 99.9885 161.144C99.9885 162.76 100.453 164.088 102.149 164.088C102.885 164.088 103.493 163.944 104.389 163.448L104.789 164.312C104.101 164.824 103.109 165.128 102.085 165.128C99.5245 165.128 98.6285 163.528 98.6285 161.192C98.6285 159.544 99.2525 157.016 102.181 157.016ZM107.535 157.192L107.583 158.6C107.599 158.6 107.599 158.6 107.615 158.616C108.319 157.496 109.535 157.016 110.559 157.016V158.28C109.743 158.296 108.559 158.52 107.631 159.672V165H106.303V157.192H107.535ZM114.902 157.976C113.398 157.976 112.902 159.192 112.806 160.52H116.79C116.79 159.016 116.342 157.976 114.902 157.976ZM114.87 157.016C117.99 157.016 118.022 159.784 118.022 160.744V161.368H112.79C112.774 162.824 113.27 164.136 115.014 164.136C115.926 164.136 116.63 163.944 117.51 163.576L117.83 164.408C116.902 164.904 115.958 165.128 114.918 165.128C112.134 165.128 111.446 163.288 111.446 161.112C111.446 159.72 111.926 157.016 114.87 157.016ZM122.654 157.016C123.246 157.016 124.142 157.144 124.878 157.592V153.624H126.19V165H125.006L124.942 164.232C124.926 164.232 124.926 164.216 124.91 164.216C124.19 164.792 123.23 165.112 122.414 165.112C120.19 165.112 119.502 163.336 119.502 161.24C119.502 158.856 120.35 157.016 122.654 157.016ZM124.878 163.272V158.6C124.43 158.328 123.582 158.04 122.878 158.04C121.79 158.04 120.846 158.76 120.846 161.24C120.846 163.448 121.646 164.136 122.814 164.136C123.438 164.136 124.414 163.704 124.878 163.272ZM129.776 165H128.48V157.192H129.776V165ZM130.016 155.144C130.016 155.592 129.616 155.992 129.136 155.992C128.688 155.992 128.288 155.592 128.288 155.144C128.288 154.664 128.688 154.28 129.136 154.28C129.616 154.28 130.016 154.664 130.016 155.144ZM133.112 155.352L133.944 155.208V157.192H136.296V158.136H133.928V162.808C133.928 163.56 134.136 164.088 135.016 164.088C135.384 164.088 135.88 163.992 136.488 163.816L136.696 164.696C136.12 164.968 135.384 165.128 134.744 165.128C133.352 165.128 132.648 164.488 132.648 163.208V158.136H131.512V157.448L132.712 157.08L133.112 155.352ZM34.288 181.016C35.088 181.016 35.968 181.192 36.672 181.64L36.208 182.568C35.44 182.152 34.864 182.072 34.352 182.072C32.816 182.072 32.096 183.288 32.096 185.144C32.096 186.76 32.56 188.088 34.256 188.088C34.992 188.088 35.6 187.944 36.496 187.448L36.896 188.312C36.208 188.824 35.216 189.128 34.192 189.128C31.632 189.128 30.736 187.528 30.736 185.192C30.736 183.544 31.36 181.016 34.288 181.016ZM41.5461 181.016C43.2261 181.016 44.2021 181.704 44.2021 183.624V189H43.0501L42.9701 188.152C42.9701 188.152 42.9541 188.136 42.9381 188.136C41.7381 189.096 40.7301 189.112 40.2341 189.112C38.4261 189.112 37.9301 187.864 37.9301 186.936C37.9301 185.464 39.0501 184.648 40.5861 184.568L42.9381 184.44V183.88C42.9381 182.6 42.6021 182.04 41.2581 182.04C40.4741 182.04 39.5781 182.232 38.7941 182.488C38.7141 182.2 38.6341 181.912 38.5381 181.624C39.4341 181.24 40.5861 181.016 41.5461 181.016ZM42.9381 185.272L40.9061 185.4C39.8501 185.464 39.3221 185.976 39.3221 186.808C39.3221 187.736 39.7701 188.2 40.7781 188.2C41.4501 188.2 42.2021 187.848 42.9381 187.208V185.272ZM47.4646 181.192L47.5126 182.6C47.5286 182.6 47.5286 182.6 47.5446 182.616C48.2486 181.496 49.4646 181.016 50.4886 181.016V182.28C49.6726 182.296 48.4886 182.52 47.5606 183.672V189H46.2326V181.192H47.4646ZM54.4961 181.016C55.0881 181.016 55.9841 181.144 56.7201 181.592V177.624H58.0321V189H56.8481L56.7841 188.232C56.7681 188.232 56.7681 188.216 56.7521 188.216C56.0321 188.792 55.0721 189.112 54.2561 189.112C52.0321 189.112 51.3441 187.336 51.3441 185.24C51.3441 182.856 52.1921 181.016 54.4961 181.016ZM56.7201 187.272V182.6C56.2721 182.328 55.4241 182.04 54.7201 182.04C53.6321 182.04 52.6881 182.76 52.6881 185.24C52.6881 187.448 53.4881 188.136 54.6561 188.136C55.2801 188.136 56.2561 187.704 56.7201 187.272ZM65.5392 181.8L65.6192 181.864C66.2592 181.352 67.1232 181.016 67.9552 181.016C70.1952 181.016 70.8832 182.808 70.8832 184.92C70.8832 187.208 70.0512 189.144 67.7472 189.144C67.1392 189.144 66.1952 189.048 65.5552 188.6V192.328H64.2592V181.192H65.5232L65.5392 181.8ZM65.5712 182.888V187.608C65.9072 187.864 66.8192 188.168 67.5232 188.168C68.6272 188.168 69.5552 187.336 69.5552 184.888C69.5552 182.728 68.7712 182.088 67.6032 182.088C66.9632 182.088 65.9392 182.52 65.5712 182.888ZM75.893 181.016C77.573 181.016 78.549 181.704 78.549 183.624V189H77.397L77.317 188.152C77.317 188.152 77.301 188.136 77.285 188.136C76.085 189.096 75.077 189.112 74.581 189.112C72.773 189.112 72.277 187.864 72.277 186.936C72.277 185.464 73.397 184.648 74.933 184.568L77.285 184.44V183.88C77.285 182.6 76.949 182.04 75.605 182.04C74.821 182.04 73.925 182.232 73.141 182.488C73.061 182.2 72.981 181.912 72.885 181.624C73.781 181.24 74.933 181.016 75.893 181.016ZM77.285 185.272L75.253 185.4C74.197 185.464 73.669 185.976 73.669 186.808C73.669 187.736 74.117 188.2 75.125 188.2C75.797 188.2 76.549 187.848 77.285 187.208V185.272ZM83.2835 187.704L85.2995 181.192H86.5955C85.5715 184.296 84.5475 187.4 83.5075 190.488C83.0275 191.928 82.3395 192.456 81.1875 192.456C80.8675 192.456 80.3235 192.424 79.4915 192.184C79.5395 191.864 79.6195 191.544 79.6835 191.208C80.2595 191.32 80.6115 191.384 80.9795 191.384C81.5715 191.384 81.9875 191.224 82.3075 190.248L82.6275 189.288C81.6675 186.6 80.7235 183.896 79.7635 181.192H81.1075C81.8115 183.368 82.5155 185.528 83.2035 187.704H83.2835ZM98.8456 189H97.5336V183.832C97.5336 182.712 97.3096 182.088 96.1096 182.088C95.4216 182.088 94.4456 182.376 93.8536 182.76C93.9336 183.112 93.9496 183.544 93.9496 183.816V189H92.6536V183.56C92.6536 182.536 92.1576 182.088 91.3896 182.088C90.6216 182.088 89.7576 182.424 89.0696 182.856V189H87.7736V181.192H89.0376L89.0536 181.88L89.1176 181.928C89.9816 181.352 90.9576 181.016 91.7576 181.016C92.5896 181.016 93.2456 181.304 93.6456 181.96C94.3976 181.432 95.5656 181.016 96.4616 181.016C98.6696 181.016 98.8456 182.472 98.8456 183.624V189ZM104.017 181.976C102.513 181.976 102.017 183.192 101.921 184.52H105.905C105.905 183.016 105.457 181.976 104.017 181.976ZM103.985 181.016C107.105 181.016 107.137 183.784 107.137 184.744V185.368H101.905C101.889 186.824 102.385 188.136 104.129 188.136C105.041 188.136 105.745 187.944 106.625 187.576L106.945 188.408C106.017 188.904 105.073 189.128 104.033 189.128C101.249 189.128 100.561 187.288 100.561 185.112C100.561 183.72 101.041 181.016 103.985 181.016ZM115.161 189H113.865V183.848C113.865 182.76 113.737 182.088 112.505 182.088C111.769 182.088 110.793 182.472 110.121 182.856V189H108.809V181.192H110.089L110.105 181.864L110.153 181.896C111.033 181.336 112.121 181.016 112.873 181.016C115.001 181.016 115.161 182.36 115.161 183.528V189ZM118.03 179.352L118.862 179.208V181.192H121.214V182.136H118.846V186.808C118.846 187.56 119.054 188.088 119.934 188.088C120.302 188.088 120.798 187.992 121.406 187.816L121.614 188.696C121.038 188.968 120.302 189.128 119.662 189.128C118.27 189.128 117.566 188.488 117.566 187.208V182.136H116.43V181.448L117.63 181.08L118.03 179.352ZM122.447 188.52L122.863 187.624C123.855 188.072 124.719 188.152 125.279 188.152C126.271 188.152 127.055 187.848 127.055 186.904C127.055 186.072 126.255 185.784 125.375 185.48C124.015 185 122.735 184.648 122.735 183.208C122.735 181.704 123.999 181.016 125.567 181.016C126.223 181.016 127.215 181.16 127.903 181.576L127.503 182.488C126.703 182.168 126.095 182.072 125.551 182.072C124.735 182.072 123.967 182.36 123.967 183.224C123.967 183.896 124.991 184.2 125.631 184.408C126.943 184.824 128.319 185.24 128.319 186.888C128.319 188.456 127.023 189.128 125.231 189.128C124.303 189.128 123.151 188.92 122.447 188.52Z" fill="#012169"></path> <path fill-rule="evenodd" clip-rule="evenodd" d="M250.505 121.431V208.936C202.177 208.936 163 169.759 163 121.431C163 73.1032 202.177 33.9258 250.505 33.9258V121.431Z" fill="#012169"></path> <path fill-rule="evenodd" clip-rule="evenodd" d="M190.573 127.159L189.206 126.485L189.662 120.289H196.859V122.239H191.702L191.52 125.063C191.812 125.009 192.34 124.845 193.105 124.845C195.511 124.845 197.479 126.138 197.479 128.799C197.479 131.605 195.292 132.99 192.65 132.99C191.557 132.99 189.789 132.808 188.514 132.115L189.115 130.33C190.555 130.785 191.429 130.931 192.194 130.931C193.871 130.931 194.873 130.22 194.873 128.744C194.873 127.36 193.743 126.722 192.432 126.722C191.848 126.722 191.211 126.886 190.573 127.159" fill="white"></path> <path fill-rule="evenodd" clip-rule="evenodd" d="M203.91 122.128C201.869 122.128 201.577 124.642 201.577 126.629C201.577 129.07 201.978 130.966 203.91 130.966C205.732 130.966 206.169 128.834 206.169 126.611C206.169 124.679 205.969 122.128 203.91 122.128M203.892 132.969C200.03 132.969 198.991 129.981 198.991 126.61C198.991 123.439 200.047 120.086 203.911 120.086C207.847 120.086 208.758 123.512 208.758 126.573C208.758 129.871 207.537 132.969 203.892 132.969" fill="white"></path> <path fill-rule="evenodd" clip-rule="evenodd" d="M221.913 126.825C220.692 126.825 220.509 128.155 220.509 129.212C220.509 130.542 220.746 131.545 221.913 131.545C222.988 131.545 223.224 130.415 223.224 129.194C223.224 128.174 223.097 126.825 221.913 126.825V126.825ZM221.894 132.927C219.306 132.927 218.613 131.177 218.613 129.191C218.613 127.333 219.306 125.419 221.912 125.419C224.536 125.419 225.119 127.387 225.119 129.191C225.119 131.123 224.317 132.927 221.894 132.927V132.927ZM215.39 133.186H213.804L219.544 119.92H221.111L215.39 133.186ZM213.167 121.977C211.946 121.977 211.764 123.307 211.764 124.364C211.764 125.694 212.001 126.678 213.167 126.678C214.242 126.678 214.479 125.549 214.479 124.364C214.479 123.326 214.351 121.977 213.167 121.977V121.977ZM213.148 128.084C210.56 128.084 209.868 126.317 209.868 124.367C209.868 122.49 210.56 120.577 213.166 120.577C215.79 120.577 216.373 122.545 216.373 124.349C216.373 126.262 215.571 128.084 213.148 128.084V128.084Z" fill="white"></path> <path fill-rule="evenodd" clip-rule="evenodd" d="M198.152 112.78V107.096H199.005V114.227H198.141L195.393 109.917L194.456 108.418C194.446 108.418 194.435 108.428 194.415 108.428V114.227H193.571V107.096H194.456C195.341 108.449 196.194 109.781 197.059 111.135L198.1 112.78H198.152Z" fill="white"></path> <path fill-rule="evenodd" clip-rule="evenodd" d="M201.222 111.31H203.814C203.814 110.332 203.523 109.656 202.586 109.656C201.607 109.656 201.284 110.447 201.222 111.31M204.616 111.457V111.863H201.212C201.202 112.81 201.524 113.664 202.659 113.664C203.253 113.664 203.711 113.539 204.283 113.299L204.491 113.841C203.887 114.163 203.273 114.309 202.597 114.309C200.785 114.309 200.338 113.112 200.338 111.696C200.338 110.79 200.65 109.031 202.565 109.031C204.595 109.031 204.616 110.832 204.616 111.457" fill="white"></path> <path fill-rule="evenodd" clip-rule="evenodd" d="M206.479 111.31H209.071C209.071 110.332 208.78 109.656 207.843 109.656C206.864 109.656 206.542 110.447 206.479 111.31M209.873 111.457V111.863H206.47C206.459 112.81 206.782 113.664 207.916 113.664C208.51 113.664 208.968 113.539 209.54 113.299L209.749 113.841C209.145 114.163 208.531 114.309 207.854 114.309C206.043 114.309 205.595 113.112 205.595 111.696C205.595 110.79 205.907 109.031 207.823 109.031C209.853 109.031 209.873 110.832 209.873 111.457" fill="white"></path> <path fill-rule="evenodd" clip-rule="evenodd" d="M214.33 110.06C214.039 109.883 213.487 109.696 213.029 109.696C212.321 109.696 211.707 110.164 211.707 111.778C211.707 113.215 212.228 113.662 212.988 113.662C213.393 113.662 214.029 113.381 214.33 113.1V110.06ZM214.329 109.408V106.826H215.183V114.228H214.413L214.371 113.728C214.361 113.728 214.361 113.717 214.35 113.717C213.882 114.093 213.257 114.3 212.726 114.3C211.279 114.3 210.832 113.145 210.832 111.782C210.832 110.23 211.383 109.033 212.882 109.033C213.268 109.033 213.85 109.116 214.329 109.408V109.408Z" fill="white"></path> <path fill-rule="evenodd" clip-rule="evenodd" d="M216.455 113.331C217.1 113.622 217.663 113.674 218.027 113.674C218.672 113.674 219.182 113.476 219.182 112.862C219.182 112.321 218.662 112.133 218.089 111.936C217.204 111.623 216.371 111.394 216.371 110.457C216.371 109.479 217.194 109.031 218.214 109.031C218.641 109.031 219.286 109.125 219.734 109.396L219.474 109.989C218.953 109.781 218.557 109.718 218.204 109.718C217.673 109.718 217.173 109.906 217.173 110.468C217.173 110.905 217.839 111.103 218.256 111.238C219.109 111.509 220.005 111.78 220.005 112.852C220.005 113.872 219.161 114.309 217.995 114.309C217.392 114.309 216.642 114.173 216.184 113.913L216.455 113.331Z" fill="white"></path> <path fill-rule="evenodd" clip-rule="evenodd" d="M261.67 115.505L344.408 143.994C360.142 98.2994 335.854 48.5015 290.159 32.7674C281.02 29.6205 271.335 28 261.67 28V115.505Z" fill="#E31837"></path> <path fill-rule="evenodd" clip-rule="evenodd" d="M293.786 73.8016C293.671 74.3328 293.546 74.8534 293.442 75.3841C293.411 75.5301 293.078 76.9768 292.485 79.652H291.412L289.664 72.5215H290.58C290.902 73.9265 291.215 75.3526 291.548 76.7582C291.672 77.3516 291.808 77.9865 291.943 78.5797H291.995L292.37 76.8727C292.703 75.3217 293.026 74.0202 293.348 72.5215H294.285L295.43 76.8209C295.483 76.9768 295.805 78.2259 295.899 78.5695H295.961C296.097 77.9448 296.242 77.2889 296.367 76.6642C296.669 75.2907 296.982 73.9057 297.294 72.5215H298.168C297.575 75.072 296.971 77.4974 296.44 79.652H295.399C295.024 78.195 294.66 76.8727 294.265 75.3735C294.129 74.8534 294.004 74.3328 293.859 73.8122L293.786 73.8016Z" fill="white"></path> <path fill-rule="evenodd" clip-rule="evenodd" d="M300.386 77.3102C299.698 77.3518 299.355 77.6847 299.355 78.2264C299.355 78.8303 299.646 79.1317 300.302 79.1317C300.739 79.1317 301.229 78.9029 301.708 78.4867V77.2269L300.386 77.3102ZM302.53 76.1561V79.6535H301.78L301.728 79.102C301.728 79.102 301.718 79.0918 301.707 79.0918C300.927 79.716 300.271 79.7267 299.948 79.7267C298.772 79.7267 298.449 78.9143 298.449 78.311C298.449 77.3531 299.178 76.8224 300.177 76.7701L301.707 76.6868V76.3226C301.707 75.49 301.489 75.1256 300.615 75.1256C300.104 75.1256 299.521 75.2505 299.011 75.4168C298.959 75.2297 298.907 75.042 298.845 74.8549C299.428 74.605 300.177 74.459 300.802 74.459C301.895 74.459 302.53 74.9069 302.53 76.1561V76.1561Z" fill="white"></path> <path fill-rule="evenodd" clip-rule="evenodd" d="M307.038 79.6535V76.3018C307.038 75.5936 306.955 75.1566 306.153 75.1566C305.674 75.1566 305.039 75.4067 304.602 75.6563V79.6535H303.748V74.5738H304.581L304.591 75.0111L304.623 75.0319C305.195 74.6675 305.903 74.459 306.392 74.459C307.777 74.459 307.881 75.3333 307.881 76.0933V79.6535H307.038Z" fill="white"></path> <path fill-rule="evenodd" clip-rule="evenodd" d="M310.287 73.2793V74.5701H311.817V75.1841H310.276V78.2237C310.276 78.7128 310.412 79.0564 310.984 79.0564C311.224 79.0564 311.546 78.9939 311.942 78.8796L312.077 79.452C311.703 79.629 311.224 79.7331 310.807 79.7331C309.902 79.7331 309.444 79.3167 309.444 78.484V75.1841H308.705V74.7364L309.485 74.4969L309.745 73.3727L310.287 73.2793Z" fill="white"></path> <path fill-rule="evenodd" clip-rule="evenodd" d="M312.879 78.7584C313.524 79.0502 314.087 79.102 314.451 79.102C315.096 79.102 315.607 78.9044 315.607 78.2902C315.607 77.7488 315.086 77.5611 314.513 77.3635C313.629 77.0512 312.796 76.8227 312.796 75.8856C312.796 74.9069 313.618 74.459 314.638 74.459C315.065 74.459 315.711 74.5532 316.158 74.8236L315.898 75.4168C315.378 75.2089 314.982 75.1464 314.628 75.1464C314.097 75.1464 313.597 75.3335 313.597 75.8958C313.597 76.3331 314.264 76.5306 314.68 76.666C315.534 76.9369 316.429 77.2074 316.429 78.2795C316.429 79.2998 315.586 79.7371 314.42 79.7371C313.816 79.7371 313.067 79.6017 312.608 79.3414L312.879 78.7584Z" fill="white"></path> <path fill-rule="evenodd" clip-rule="evenodd" d="M290.941 92.0576C292.872 92.4766 293.564 93.9163 293.564 95.301C293.564 97.4877 291.761 99.2735 288.736 99.2735C287.424 99.2735 285.73 99.0549 284.508 98.3078L285.237 96.4124C287.005 97.1779 287.879 97.2144 288.408 97.2144C290.193 97.2144 290.85 96.2123 290.868 95.4468C290.904 93.8252 289.647 93.2601 287.314 93.2054V91.4745C289.72 91.4014 290.376 90.436 290.376 89.5794C290.376 88.9599 289.92 88.413 288.918 88.413C288.371 88.413 287.351 88.4497 285.547 89.4154L284.836 87.5749C286.313 86.7368 287.861 86.3359 288.991 86.3359C291.815 86.3359 293.018 87.7935 293.018 89.3607C293.018 90.1806 292.526 91.4381 290.941 92.0029V92.0576Z" fill="white"></path> <path fill-rule="evenodd" clip-rule="evenodd" d="M300.36 88.4149C298.319 88.4149 298.027 90.9295 298.027 92.9158C298.027 95.3575 298.428 97.2527 300.36 97.2527C302.182 97.2527 302.619 95.1207 302.619 92.8978C302.619 90.9662 302.419 88.4149 300.36 88.4149M300.341 99.256C296.478 99.256 295.439 96.2679 295.439 92.8969C295.439 89.7261 296.496 86.373 300.359 86.373C304.295 86.373 305.206 89.7989 305.206 92.8602C305.206 96.1585 303.986 99.256 300.341 99.256" fill="white"></path> <path fill-rule="evenodd" clip-rule="evenodd" d="M318.362 93.1163C317.142 93.1163 316.959 94.4464 316.959 95.5034C316.959 96.8335 317.196 97.8359 318.362 97.8359C319.438 97.8359 319.675 96.7059 319.675 95.4852C319.675 94.4649 319.547 93.1163 318.362 93.1163V93.1163ZM318.343 99.2177C315.755 99.2177 315.063 97.4684 315.063 95.4824C315.063 93.6236 315.755 91.7103 318.361 91.7103C320.986 91.7103 321.569 93.6783 321.569 95.4824C321.569 97.4137 320.766 99.2177 318.343 99.2177V99.2177ZM311.839 99.4767H310.254L315.993 86.2109H317.561L311.839 99.4767ZM309.616 88.2681C308.396 88.2681 308.213 89.5982 308.213 90.6552C308.213 91.9853 308.45 92.9692 309.616 92.9692C310.691 92.9692 310.929 91.8398 310.929 90.6552C310.929 89.6167 310.801 88.2681 309.616 88.2681V88.2681ZM309.597 94.3753C307.01 94.3753 306.317 92.608 306.317 90.6582C306.317 88.7812 307.01 86.8679 309.615 86.8679C312.24 86.8679 312.823 88.8359 312.823 90.6399C312.823 92.5533 312.021 94.3753 309.597 94.3753V94.3753Z" fill="white"></path> <path fill-rule="evenodd" clip-rule="evenodd" d="M261.672 126.494V213.999C300.334 213.999 331.823 191.539 344.41 154.983L261.672 126.494Z" fill="#0073CF"></path> <path fill-rule="evenodd" clip-rule="evenodd" d="M279.599 188.054H284.811V189.95H275.991V188.291C278.105 186.36 281.64 183.426 281.64 181.094C281.64 179.928 280.948 179.326 279.691 179.326C279.053 179.326 277.905 179.49 276.593 180.237L275.791 178.634C277.34 177.54 278.962 177.176 280.146 177.176C282.679 177.176 284.264 178.506 284.264 180.911C284.264 183.663 281.403 186.232 279.563 187.945L279.599 188.054Z" fill="white"></path> <path fill-rule="evenodd" clip-rule="evenodd" d="M291.458 179.253C289.417 179.253 289.126 181.768 289.126 183.754C289.126 186.196 289.527 188.091 291.458 188.091C293.281 188.091 293.718 185.959 293.718 183.736C293.718 181.804 293.518 179.253 291.458 179.253M291.442 190.094C287.579 190.094 286.54 187.105 286.54 183.735C286.54 180.564 287.597 177.211 291.46 177.211C295.396 177.211 296.307 180.637 296.307 183.698C296.307 186.996 295.086 190.094 291.442 190.094" fill="white"></path> <path fill-rule="evenodd" clip-rule="evenodd" d="M309.462 183.946C308.241 183.946 308.059 185.277 308.059 186.334C308.059 187.664 308.296 188.666 309.462 188.666C310.537 188.666 310.774 187.536 310.774 186.316C310.774 185.295 310.646 183.946 309.462 183.946V183.946ZM309.443 190.052C306.855 190.052 306.163 188.303 306.163 186.317C306.163 184.458 306.855 182.544 309.461 182.544C312.085 182.544 312.668 184.512 312.668 186.317C312.668 188.248 311.866 190.052 309.443 190.052V190.052ZM302.939 190.307H301.354L307.093 177.041H308.661L302.939 190.307ZM300.716 179.098C299.495 179.098 299.313 180.428 299.313 181.485C299.313 182.815 299.55 183.799 300.716 183.799C301.791 183.799 302.028 182.67 302.028 181.485C302.028 180.447 301.9 179.098 300.716 179.098V179.098ZM300.697 185.205C298.109 185.205 297.417 183.438 297.417 181.488C297.417 179.611 298.109 177.698 300.715 177.698C303.339 177.698 303.922 179.666 303.922 181.47C303.922 183.383 303.121 185.205 300.697 185.205V185.205Z" fill="white"></path> <path fill-rule="evenodd" clip-rule="evenodd" d="M282.25 151.809L281.969 152.433C281.292 152.132 280.72 152.069 280.252 152.069C279.419 152.069 278.836 152.496 278.836 153.36C278.836 154.141 279.637 154.359 280.429 154.557C281.459 154.817 282.719 155.088 282.719 156.65C282.719 158.065 281.636 158.69 280.095 158.69C279.356 158.69 278.492 158.544 277.795 158.138L278.097 157.493C278.94 157.899 279.575 157.982 280.106 157.982C281.188 157.982 281.823 157.659 281.823 156.65C281.823 155.796 281.167 155.567 280.293 155.338C279.054 155.015 277.93 154.703 277.93 153.381C277.93 152.1 278.919 151.361 280.293 151.361C280.887 151.361 281.646 151.455 282.25 151.809" fill="white"></path> <path fill-rule="evenodd" clip-rule="evenodd" d="M285.562 156.267C284.875 156.309 284.531 156.642 284.531 157.183C284.531 157.787 284.823 158.089 285.479 158.089C285.916 158.089 286.405 157.86 286.884 157.443V156.184L285.562 156.267ZM287.706 155.113V158.611H286.956L286.905 158.059C286.905 158.059 286.894 158.049 286.884 158.049C286.103 158.673 285.447 158.683 285.124 158.683C283.948 158.683 283.625 157.871 283.625 157.268C283.625 156.31 284.354 155.779 285.353 155.727L286.884 155.644V155.279C286.884 154.447 286.665 154.082 285.791 154.082C285.281 154.082 284.698 154.207 284.188 154.374C284.136 154.186 284.083 153.999 284.021 153.812C284.604 153.562 285.353 153.416 285.978 153.416C287.071 153.416 287.706 153.864 287.706 155.113V155.113Z" fill="white"></path> <path fill-rule="evenodd" clip-rule="evenodd" d="M288.414 153.527H289.277C289.558 154.412 289.871 155.266 290.142 156.14C290.329 156.723 290.516 157.379 290.714 157.951H290.766C290.839 157.743 291.089 156.858 291.37 156.005L292.192 153.527H293.046L291.214 158.607H290.194L288.414 153.527Z" fill="white"></path> <mask id="mask0_2575_5912" maskUnits="userSpaceOnUse" x="163" y="28" width="187" height="186"> <path fill-rule="evenodd" clip-rule="evenodd" d="M163 214.001H349.2V28H163V214.001Z" fill="white"></path> </mask> <g mask="url(#mask0_2575_5912)"> <path fill-rule="evenodd" clip-rule="evenodd" d="M294.027 158.605H294.87V153.525H294.027V158.605ZM294.453 152.747C294.161 152.747 293.901 152.487 293.901 152.195C293.901 151.883 294.161 151.633 294.453 151.633C294.765 151.633 295.026 151.883 295.026 152.195C295.026 152.487 294.765 152.747 294.453 152.747V152.747Z" fill="white"></path> <path fill-rule="evenodd" clip-rule="evenodd" d="M299.679 158.609V155.257C299.679 154.549 299.596 154.112 298.794 154.112C298.316 154.112 297.68 154.362 297.243 154.611V158.609H296.39V153.529H297.223L297.233 153.966L297.264 153.987C297.837 153.622 298.545 153.414 299.034 153.414C300.418 153.414 300.522 154.288 300.522 155.048V158.609H299.679Z" fill="white"></path> <path fill-rule="evenodd" clip-rule="evenodd" d="M303.833 154.063C303.136 154.063 302.709 154.47 302.709 155.104C302.709 155.771 303.167 156.177 303.823 156.177C304.489 156.177 304.968 155.792 304.968 155.094C304.968 154.615 304.697 154.063 303.833 154.063V154.063ZM302.97 158.422C302.616 158.557 302.325 158.911 302.325 159.296C302.325 159.796 302.7 160.233 303.782 160.233C304.667 160.233 305.385 159.879 305.385 159.213C305.385 158.796 305.094 158.422 304.084 158.422H302.97ZM304.739 153.531C305.301 153.499 305.853 153.458 306.405 153.416V154.03H305.478L305.457 154.072C305.728 154.322 305.843 154.748 305.843 155.102C305.843 156.081 305.031 156.799 303.813 156.799H303.146C302.626 156.799 302.293 157.122 302.293 157.413C302.293 157.653 302.47 157.819 302.907 157.819H304.198C305.572 157.819 306.259 158.267 306.259 159.173C306.259 160.141 305.26 160.859 303.688 160.859C302.012 160.859 301.491 160.172 301.491 159.464C301.491 158.923 301.845 158.517 302.199 158.329C301.741 158.225 301.554 157.882 301.554 157.517C301.554 156.966 302.012 156.56 302.48 156.476V156.424C302.126 156.227 301.845 155.79 301.845 155.144C301.845 153.937 302.855 153.416 303.792 153.416C304.125 153.416 304.458 153.437 304.739 153.531V153.531Z" fill="white"></path> <path fill-rule="evenodd" clip-rule="evenodd" d="M307.362 157.713C308.007 158.005 308.57 158.057 308.934 158.057C309.579 158.057 310.09 157.859 310.09 157.245C310.09 156.704 309.569 156.516 308.996 156.319C308.112 156.006 307.279 155.777 307.279 154.84C307.279 153.862 308.101 153.414 309.121 153.414C309.548 153.414 310.193 153.508 310.641 153.779L310.381 154.372C309.861 154.164 309.465 154.101 309.111 154.101C308.58 154.101 308.08 154.289 308.08 154.851C308.08 155.288 308.746 155.486 309.163 155.621C310.016 155.892 310.912 156.162 310.912 157.235C310.912 158.255 310.068 158.692 308.903 158.692C308.299 158.692 307.549 158.557 307.091 158.296L307.362 157.713Z" fill="white"></path> <path fill-rule="evenodd" clip-rule="evenodd" d="M280.666 165.133C279.542 165.133 279.261 166.195 279.261 167.153C279.261 168.163 279.469 169.1 280.666 169.1C281.769 169.1 281.988 168.069 281.988 167.153C281.988 166.247 281.79 165.133 280.666 165.133M280.563 169.755C278.897 169.755 278.376 168.526 278.376 167.152C278.376 165.799 279.001 164.477 280.666 164.477C282.364 164.477 282.873 165.799 282.873 167.131C282.873 168.433 282.342 169.755 280.563 169.755" fill="white"></path> <path fill-rule="evenodd" clip-rule="evenodd" d="M284.905 165.503C284.915 165.503 284.915 165.503 284.926 165.514C285.384 164.785 286.175 164.473 286.841 164.473V165.295C286.31 165.306 285.54 165.451 284.936 166.201V169.667H284.072V164.587H284.874L284.905 165.503Z" fill="white"></path> <path fill-rule="evenodd" clip-rule="evenodd" d="M291.465 163.202V168.989H292.485C293.141 168.989 294.921 168.854 294.921 166.158C294.921 163.4 293.287 163.202 292.537 163.202H291.465ZM290.56 169.67V162.539H292.673C295.004 162.539 295.837 164.184 295.837 166.089C295.837 168.036 294.911 169.67 292.579 169.67H290.56Z" fill="white"></path> <path fill-rule="evenodd" clip-rule="evenodd" d="M297.824 166.756H300.416C300.416 165.777 300.125 165.101 299.188 165.101C298.209 165.101 297.887 165.892 297.824 166.756M301.218 166.902V167.308H297.814C297.804 168.255 298.126 169.109 299.261 169.109C299.855 169.109 300.313 168.984 300.885 168.745L301.093 169.286C300.489 169.609 299.875 169.755 299.199 169.755C297.387 169.755 296.94 168.557 296.94 167.141C296.94 166.236 297.252 164.477 299.167 164.477C301.197 164.477 301.218 166.277 301.218 166.902" fill="white"></path> <path fill-rule="evenodd" clip-rule="evenodd" d="M303.157 165.612V168.85C303.584 169.037 304.021 169.089 304.375 169.089C305.228 169.089 305.749 168.61 305.749 167.174C305.749 165.56 305.249 165.185 304.541 165.185C304.052 165.185 303.531 165.394 303.157 165.612V165.612ZM303.178 164.922C303.771 164.589 304.281 164.475 304.708 164.475C306.187 164.475 306.624 165.609 306.624 167.15C306.624 168.565 306.103 169.752 304.427 169.752C303.74 169.752 302.959 169.596 302.304 169.294V162.268H303.157V163.767L303.126 164.881L303.178 164.922Z" fill="white"></path> <path fill-rule="evenodd" clip-rule="evenodd" d="M308.914 163.295V164.586H310.445V165.2H308.904V168.239C308.904 168.729 309.039 169.072 309.612 169.072C309.851 169.072 310.174 169.01 310.569 168.895L310.705 169.468C310.33 169.645 309.851 169.749 309.435 169.749C308.529 169.749 308.071 169.333 308.071 168.5V165.2H307.332V164.752L308.113 164.513L308.373 163.388L308.914 163.295Z" fill="white"></path> </g> <g clip-path="url(#clip0_2575_5912)"> <rect opacity="0.01" x="361.2" y="2" width="20" height="20" fill="white"></rect> <path fill-rule="evenodd" clip-rule="evenodd" d="M378.783 5.25V16.0833H379.616V16.5C379.616 17.6506 378.684 18.5833 377.533 18.5833H365.033C363.882 18.5833 362.95 17.6506 362.95 16.5V16.0833H363.783V5.25H378.783ZM377.95 6.08333H364.616V16.0833H377.95V6.08333ZM377.533 17.75H365.033C364.503 17.7503 364.031 17.4163 363.854 16.9167H378.712C378.536 17.4163 378.063 17.7503 377.533 17.75ZM376.777 6.6714L365.296 15.0976L365.789 15.7695L377.27 7.34322L376.777 6.6714ZM369.121 14.4257L376.51 9.00426L377.003 9.67616L369.614 15.0976L369.121 14.4257ZM375.101 12.2302L372.742 13.961L373.235 14.6329L375.594 12.9021L375.101 12.2302Z" fill="#E31837"></path> <path d="M395.84 4.864C396.752 4.864 397.92 5.008 398.848 5.552L398.416 6.512C397.376 6.048 396.496 5.952 395.776 5.952C394.496 5.952 393.6 6.608 393.6 7.936C393.6 9.136 394.832 9.472 396.048 9.776C397.632 10.176 399.568 10.592 399.568 12.992C399.568 15.168 397.904 16.128 395.536 16.128C394.4 16.128 393.072 15.904 392 15.28L392.464 14.288C393.76 14.912 394.736 15.04 395.552 15.04C397.216 15.04 398.192 14.544 398.192 12.992C398.192 11.68 397.184 11.328 395.84 10.976C393.936 10.48 392.208 10 392.208 7.968C392.208 6 393.728 4.864 395.84 4.864ZM402.302 6.352L403.134 6.208V8.192H405.486V9.136H403.118V13.808C403.118 14.56 403.326 15.088 404.206 15.088C404.574 15.088 405.07 14.992 405.678 14.816L405.886 15.696C405.31 15.968 404.574 16.128 403.934 16.128C402.542 16.128 401.838 15.488 401.838 14.208V9.136H400.702V8.448L401.902 8.08L402.302 6.352ZM408.399 8.192L408.447 9.6C408.463 9.6 408.463 9.6 408.479 9.616C409.183 8.496 410.399 8.016 411.423 8.016V9.28C410.607 9.296 409.423 9.52 408.495 10.672V16H407.167V8.192H408.399ZM415.766 8.976C414.262 8.976 413.766 10.192 413.67 11.52H417.654C417.654 10.016 417.206 8.976 415.766 8.976ZM415.734 8.016C418.854 8.016 418.886 10.784 418.886 11.744V12.368H413.654C413.638 13.824 414.134 15.136 415.878 15.136C416.79 15.136 417.494 14.944 418.374 14.576L418.694 15.408C417.766 15.904 416.822 16.128 415.782 16.128C412.998 16.128 412.31 14.288 412.31 12.112C412.31 10.72 412.79 8.016 415.734 8.016ZM423.838 8.016C425.518 8.016 426.494 8.704 426.494 10.624V16H425.342L425.262 15.152C425.262 15.152 425.246 15.136 425.23 15.136C424.03 16.096 423.022 16.112 422.526 16.112C420.718 16.112 420.222 14.864 420.222 13.936C420.222 12.464 421.342 11.648 422.878 11.568L425.23 11.44V10.88C425.23 9.6 424.894 9.04 423.55 9.04C422.766 9.04 421.87 9.232 421.086 9.488C421.006 9.2 420.926 8.912 420.83 8.624C421.726 8.24 422.878 8.016 423.838 8.016ZM425.23 12.272L423.198 12.4C422.142 12.464 421.614 12.976 421.614 13.808C421.614 14.736 422.062 15.2 423.07 15.2C423.742 15.2 424.494 14.848 425.23 14.208V12.272ZM439.453 16H438.141V10.832C438.141 9.712 437.917 9.088 436.717 9.088C436.029 9.088 435.053 9.376 434.461 9.76C434.541 10.112 434.557 10.544 434.557 10.816V16H433.261V10.56C433.261 9.536 432.765 9.088 431.997 9.088C431.229 9.088 430.365 9.424 429.677 9.856V16H428.381V8.192H429.645L429.661 8.88L429.725 8.928C430.589 8.352 431.565 8.016 432.365 8.016C433.197 8.016 433.853 8.304 434.253 8.96C435.005 8.432 436.173 8.016 437.069 8.016C439.277 8.016 439.453 9.472 439.453 10.624V16ZM443.056 16H441.76V8.192H443.056V16ZM443.296 6.144C443.296 6.592 442.896 6.992 442.416 6.992C441.968 6.992 441.568 6.592 441.568 6.144C441.568 5.664 441.968 5.28 442.416 5.28C442.896 5.28 443.296 5.664 443.296 6.144ZM451.753 16H450.457V10.848C450.457 9.76 450.329 9.088 449.097 9.088C448.361 9.088 447.385 9.472 446.713 9.856V16H445.401V8.192H446.681L446.697 8.864L446.745 8.896C447.625 8.336 448.713 8.016 449.465 8.016C451.593 8.016 451.753 9.36 451.753 10.528V16ZM456.782 8.016C457.294 8.016 457.806 8.048 458.238 8.192C459.102 8.144 459.95 8.08 460.798 8.016V8.96H459.374L459.342 9.024C459.758 9.408 459.934 10.064 459.934 10.608C459.934 12.112 458.686 13.216 456.814 13.216H455.79C454.99 13.216 454.478 13.712 454.478 14.16C454.478 14.528 454.75 14.784 455.422 14.784H457.406C459.518 14.784 460.574 15.472 460.574 16.864C460.574 18.352 459.038 19.456 456.622 19.456C454.046 19.456 453.246 18.4 453.246 17.312C453.246 16.48 453.79 15.856 454.334 15.568C453.63 15.408 453.342 14.88 453.342 14.32C453.342 13.472 454.046 12.848 454.766 12.72V12.64C454.222 12.336 453.79 11.664 453.79 10.672C453.79 8.816 455.342 8.016 456.782 8.016ZM457.23 15.712H455.518C454.974 15.92 454.526 16.464 454.526 17.056C454.526 17.824 455.102 18.496 456.766 18.496C458.126 18.496 459.23 17.952 459.23 16.928C459.23 16.288 458.782 15.712 457.23 15.712ZM458.59 10.592C458.59 9.856 458.174 9.008 456.846 9.008C455.774 9.008 455.118 9.632 455.118 10.608C455.118 11.632 455.822 12.256 456.83 12.256C457.854 12.256 458.59 11.664 458.59 10.592ZM466.236 15.52L466.652 14.624C467.644 15.072 468.508 15.152 469.068 15.152C470.06 15.152 470.844 14.848 470.844 13.904C470.844 13.072 470.044 12.784 469.164 12.48C467.804 12 466.524 11.648 466.524 10.208C466.524 8.704 467.788 8.016 469.356 8.016C470.012 8.016 471.004 8.16 471.692 8.576L471.292 9.488C470.492 9.168 469.884 9.072 469.34 9.072C468.524 9.072 467.756 9.36 467.756 10.224C467.756 10.896 468.78 11.2 469.42 11.408C470.732 11.824 472.108 12.24 472.108 13.888C472.108 15.456 470.812 16.128 469.02 16.128C468.092 16.128 466.94 15.92 466.236 15.52ZM476.987 8.976C475.483 8.976 474.987 10.192 474.891 11.52H478.875C478.875 10.016 478.427 8.976 476.987 8.976ZM476.955 8.016C480.075 8.016 480.107 10.784 480.107 11.744V12.368H474.875C474.859 13.824 475.355 15.136 477.099 15.136C478.011 15.136 478.715 14.944 479.595 14.576L479.915 15.408C478.987 15.904 478.043 16.128 477.003 16.128C474.219 16.128 473.531 14.288 473.531 12.112C473.531 10.72 474.011 8.016 476.955 8.016ZM483.155 8.192L483.203 9.6C483.219 9.6 483.219 9.6 483.235 9.616C483.939 8.496 485.155 8.016 486.179 8.016V9.28C485.363 9.296 484.179 9.52 483.251 10.672V16H481.923V8.192H483.155ZM489.178 16L486.442 8.192H487.77C488.202 9.552 488.682 10.864 489.098 12.208C489.386 13.104 489.674 14.112 489.978 14.992H490.058C490.17 14.672 490.554 13.312 490.986 12L492.25 8.192H493.562L490.746 16H489.178ZM496.371 16H495.075V8.192H496.371V16ZM496.611 6.144C496.611 6.592 496.211 6.992 495.731 6.992C495.283 6.992 494.883 6.592 494.883 6.144C494.883 5.664 495.283 5.28 495.731 5.28C496.211 5.28 496.611 5.664 496.611 6.144ZM502.075 8.016C502.875 8.016 503.755 8.192 504.459 8.64L503.995 9.568C503.227 9.152 502.651 9.072 502.139 9.072C500.603 9.072 499.883 10.288 499.883 12.144C499.883 13.76 500.347 15.088 502.043 15.088C502.779 15.088 503.387 14.944 504.283 14.448L504.683 15.312C503.995 15.824 503.003 16.128 501.979 16.128C499.419 16.128 498.523 14.528 498.523 12.192C498.523 10.544 499.147 8.016 502.075 8.016ZM509.349 8.976C507.845 8.976 507.349 10.192 507.253 11.52H511.237C511.237 10.016 510.789 8.976 509.349 8.976ZM509.317 8.016C512.437 8.016 512.469 10.784 512.469 11.744V12.368H507.237C507.221 13.824 507.717 15.136 509.461 15.136C510.373 15.136 511.077 14.944 511.957 14.576L512.277 15.408C511.349 15.904 510.405 16.128 509.365 16.128C506.581 16.128 505.893 14.288 505.893 12.112C505.893 10.72 506.373 8.016 509.317 8.016ZM513.837 15.52L514.253 14.624C515.245 15.072 516.109 15.152 516.669 15.152C517.661 15.152 518.445 14.848 518.445 13.904C518.445 13.072 517.645 12.784 516.765 12.48C515.405 12 514.125 11.648 514.125 10.208C514.125 8.704 515.389 8.016 516.957 8.016C517.613 8.016 518.605 8.16 519.293 8.576L518.893 9.488C518.093 9.168 517.485 9.072 516.941 9.072C516.125 9.072 515.357 9.36 515.357 10.224C515.357 10.896 516.381 11.2 517.021 11.408C518.333 11.824 519.709 12.24 519.709 13.888C519.709 15.456 518.413 16.128 516.621 16.128C515.693 16.128 514.541 15.92 513.837 15.52Z" fill="#E31837"></path> <rect opacity="0.01" x="361.2" y="28" width="20" height="20" fill="white"></rect> <path fill-rule="evenodd" clip-rule="evenodd" d="M374.533 33.8327V32.9993C374.533 31.1584 373.04 29.666 371.2 29.666C369.359 29.666 367.866 31.1584 367.866 32.9993V33.8327H365.366V46.3327H377.033V33.8327H374.533ZM368.7 32.9993C368.7 31.6186 369.819 30.4993 371.2 30.4993C372.58 30.4993 373.7 31.6186 373.7 32.9993V33.8327H368.7V32.9993ZM376.2 45.4993H366.2V34.666H367.866V36.3327H368.7V34.666H373.7V36.3327H374.533V34.666H376.2V45.4993Z" fill="#E31837"></path> <path d="M395.84 30.864C396.752 30.864 397.92 31.008 398.848 31.552L398.416 32.512C397.376 32.048 396.496 31.952 395.776 31.952C394.496 31.952 393.6 32.608 393.6 33.936C393.6 35.136 394.832 35.472 396.048 35.776C397.632 36.176 399.568 36.592 399.568 38.992C399.568 41.168 397.904 42.128 395.536 42.128C394.4 42.128 393.072 41.904 392 41.28L392.464 40.288C393.76 40.912 394.736 41.04 395.552 41.04C397.216 41.04 398.192 40.544 398.192 38.992C398.192 37.68 397.184 37.328 395.84 36.976C393.936 36.48 392.208 36 392.208 33.968C392.208 32 393.728 30.864 395.84 30.864ZM402.558 34.816L402.686 34.88C403.63 34.384 404.718 34.016 405.422 34.016C407.55 34.016 407.662 35.36 407.662 36.528V42H406.366V36.848C406.366 35.76 406.254 35.088 405.006 35.088C404.27 35.088 403.294 35.472 402.622 35.856V42H401.31V30.624H402.606V33.152L402.558 34.816ZM416.29 38.096C416.29 40.096 415.474 42.128 412.738 42.128C410.178 42.128 409.378 40.24 409.378 38.128C409.378 36.048 410.338 34.016 412.898 34.016C415.506 34.016 416.29 36.048 416.29 38.096ZM414.93 38.128C414.93 36.736 414.626 35.024 412.898 35.024C411.17 35.024 410.738 36.656 410.738 38.128C410.738 39.68 411.058 41.12 412.898 41.12C414.594 41.12 414.93 39.536 414.93 38.128ZM419.281 34.8L419.361 34.864C420.001 34.352 420.865 34.016 421.697 34.016C423.937 34.016 424.625 35.808 424.625 37.92C424.625 40.208 423.793 42.144 421.489 42.144C420.881 42.144 419.937 42.048 419.297 41.6V45.328H418.001V34.192H419.265L419.281 34.8ZM419.313 35.888V40.608C419.649 40.864 420.561 41.168 421.265 41.168C422.369 41.168 423.297 40.336 423.297 37.888C423.297 35.728 422.513 35.088 421.345 35.088C420.705 35.088 419.681 35.52 419.313 35.888ZM427.635 34.8L427.715 34.864C428.355 34.352 429.219 34.016 430.051 34.016C432.291 34.016 432.979 35.808 432.979 37.92C432.979 40.208 432.147 42.144 429.843 42.144C429.235 42.144 428.291 42.048 427.651 41.6V45.328H426.355V34.192H427.619L427.635 34.8ZM427.667 35.888V40.608C428.003 40.864 428.915 41.168 429.619 41.168C430.723 41.168 431.651 40.336 431.651 37.888C431.651 35.728 430.867 35.088 429.699 35.088C429.059 35.088 428.035 35.52 427.667 35.888ZM436.437 42H435.141V34.192H436.437V42ZM436.677 32.144C436.677 32.592 436.277 32.992 435.797 32.992C435.349 32.992 434.949 32.592 434.949 32.144C434.949 31.664 435.349 31.28 435.797 31.28C436.277 31.28 436.677 31.664 436.677 32.144ZM445.133 42H443.837V36.848C443.837 35.76 443.709 35.088 442.477 35.088C441.741 35.088 440.765 35.472 440.093 35.856V42H438.781V34.192H440.061L440.077 34.864L440.125 34.896C441.005 34.336 442.093 34.016 442.845 34.016C444.973 34.016 445.133 35.36 445.133 36.528V42ZM450.162 34.016C450.674 34.016 451.186 34.048 451.618 34.192C452.482 34.144 453.33 34.08 454.178 34.016V34.96H452.754L452.722 35.024C453.138 35.408 453.314 36.064 453.314 36.608C453.314 38.112 452.066 39.216 450.194 39.216H449.17C448.37 39.216 447.858 39.712 447.858 40.16C447.858 40.528 448.13 40.784 448.802 40.784H450.786C452.898 40.784 453.954 41.472 453.954 42.864C453.954 44.352 452.418 45.456 450.002 45.456C447.426 45.456 446.626 44.4 446.626 43.312C446.626 42.48 447.17 41.856 447.714 41.568C447.01 41.408 446.722 40.88 446.722 40.32C446.722 39.472 447.426 38.848 448.146 38.72V38.64C447.602 38.336 447.17 37.664 447.17 36.672C447.17 34.816 448.722 34.016 450.162 34.016ZM450.61 41.712H448.898C448.354 41.92 447.906 42.464 447.906 43.056C447.906 43.824 448.482 44.496 450.146 44.496C451.506 44.496 452.61 43.952 452.61 42.928C452.61 42.288 452.162 41.712 450.61 41.712ZM451.97 36.592C451.97 35.856 451.554 35.008 450.226 35.008C449.154 35.008 448.498 35.632 448.498 36.608C448.498 37.632 449.202 38.256 450.21 38.256C451.234 38.256 451.97 37.664 451.97 36.592Z" fill="#E31837"></path> <rect opacity="0.01" x="361.2" y="54" width="20" height="20" fill="white"></rect> <path fill-rule="evenodd" clip-rule="evenodd" d="M379.411 62.4585C378.943 59.5768 376.046 57.1452 372.322 56.4652L372.415 55.7777L371.59 55.666L371.499 56.3452C367.849 55.9527 364.485 57.376 363.207 59.921L362.866 60.601L365.666 60.311L367 61.0985L368.477 60.7652L369.786 61.5377L370.83 61.301L369.653 70.0093L366.167 72.3327H373.31L370.485 70.071L371.651 61.4285L372.572 61.9718L374.05 61.6385L375.359 62.411L376.867 62.0685L379.533 63.2068L379.411 62.4585ZM370.935 71.4993H368.918L370.018 70.7652L370.935 71.4993ZM365.579 59.4827L364.38 59.6068C365.494 58.2724 367.082 57.4207 368.81 57.2302C367.614 57.7939 366.522 58.5555 365.579 59.4827V59.4827ZM370.95 60.416L369.925 60.6485L368.616 59.8768L367.139 60.2102L366.45 59.8077C367.812 58.5143 369.52 57.6429 371.366 57.2985L370.95 60.416ZM375.499 61.5227L374.19 60.7493L372.711 61.0827L371.773 60.5285L372.209 57.306C372.835 57.5127 374.475 58.3252 376.262 61.346L375.499 61.5227ZM377.199 61.301C376.593 60.1848 375.845 59.1522 374.973 58.2293C376.524 58.9487 377.745 60.2291 378.39 61.8127L377.199 61.301Z" fill="#E31837"></path> <path d="M395.616 66.592H395.696L396.336 64.352L398.496 57.04H399.904L396.432 68H394.832L391.36 57.04H392.8L394.992 64.368L395.616 66.592ZM403.965 60.016C405.645 60.016 406.621 60.704 406.621 62.624V68H405.469L405.389 67.152C405.389 67.152 405.373 67.136 405.357 67.136C404.157 68.096 403.149 68.112 402.653 68.112C400.845 68.112 400.349 66.864 400.349 65.936C400.349 64.464 401.469 63.648 403.005 63.568L405.357 63.44V62.88C405.357 61.6 405.021 61.04 403.677 61.04C402.893 61.04 401.997 61.232 401.213 61.488C401.133 61.2 401.053 60.912 400.957 60.624C401.853 60.24 403.005 60.016 403.965 60.016ZM405.357 64.272L403.325 64.4C402.269 64.464 401.741 64.976 401.741 65.808C401.741 66.736 402.189 67.2 403.197 67.2C403.869 67.2 404.621 66.848 405.357 66.208V64.272ZM411.867 60.016C412.667 60.016 413.547 60.192 414.251 60.64L413.787 61.568C413.019 61.152 412.443 61.072 411.931 61.072C410.395 61.072 409.675 62.288 409.675 64.144C409.675 65.76 410.139 67.088 411.835 67.088C412.571 67.088 413.179 66.944 414.075 66.448L414.475 67.312C413.787 67.824 412.795 68.128 411.771 68.128C409.211 68.128 408.315 66.528 408.315 64.192C408.315 62.544 408.939 60.016 411.867 60.016ZM419.125 60.016C420.805 60.016 421.781 60.704 421.781 62.624V68H420.629L420.549 67.152C420.549 67.152 420.533 67.136 420.517 67.136C419.317 68.096 418.309 68.112 417.813 68.112C416.005 68.112 415.509 66.864 415.509 65.936C415.509 64.464 416.629 63.648 418.165 63.568L420.517 63.44V62.88C420.517 61.6 420.181 61.04 418.837 61.04C418.053 61.04 417.157 61.232 416.373 61.488C416.293 61.2 416.213 60.912 416.117 60.624C417.013 60.24 418.165 60.016 419.125 60.016ZM420.517 64.272L418.485 64.4C417.429 64.464 416.901 64.976 416.901 65.808C416.901 66.736 417.349 67.2 418.357 67.2C419.029 67.2 419.781 66.848 420.517 66.208V64.272ZM424.66 58.352L425.492 58.208V60.192H427.844V61.136H425.476V65.808C425.476 66.56 425.684 67.088 426.564 67.088C426.932 67.088 427.428 66.992 428.036 66.816L428.244 67.696C427.668 67.968 426.932 68.128 426.292 68.128C424.9 68.128 424.196 67.488 424.196 66.208V61.136H423.06V60.448L424.26 60.08L424.66 58.352ZM431.109 68H429.813V60.192H431.109V68ZM431.349 58.144C431.349 58.592 430.949 58.992 430.469 58.992C430.021 58.992 429.621 58.592 429.621 58.144C429.621 57.664 430.021 57.28 430.469 57.28C430.949 57.28 431.349 57.664 431.349 58.144ZM440.205 64.096C440.205 66.096 439.389 68.128 436.653 68.128C434.093 68.128 433.293 66.24 433.293 64.128C433.293 62.048 434.253 60.016 436.813 60.016C439.421 60.016 440.205 62.048 440.205 64.096ZM438.845 64.128C438.845 62.736 438.541 61.024 436.813 61.024C435.085 61.024 434.653 62.656 434.653 64.128C434.653 65.68 434.973 67.12 436.813 67.12C438.509 67.12 438.845 65.536 438.845 64.128ZM448.268 68H446.972V62.848C446.972 61.76 446.844 61.088 445.612 61.088C444.876 61.088 443.9 61.472 443.228 61.856V68H441.916V60.192H443.196L443.212 60.864L443.26 60.896C444.14 60.336 445.228 60.016 445.98 60.016C448.108 60.016 448.268 61.36 448.268 62.528V68ZM449.841 67.52L450.257 66.624C451.249 67.072 452.113 67.152 452.673 67.152C453.665 67.152 454.449 66.848 454.449 65.904C454.449 65.072 453.649 64.784 452.769 64.48C451.409 64 450.129 63.648 450.129 62.208C450.129 60.704 451.393 60.016 452.961 60.016C453.617 60.016 454.609 60.16 455.297 60.576L454.897 61.488C454.097 61.168 453.489 61.072 452.945 61.072C452.129 61.072 451.361 61.36 451.361 62.224C451.361 62.896 452.385 63.2 453.025 63.408C454.337 63.824 455.713 64.24 455.713 65.888C455.713 67.456 454.417 68.128 452.625 68.128C451.697 68.128 450.545 67.92 449.841 67.52Z" fill="#E31837"></path> </g> <g clip-path="url(#clip1_2575_5912)"> <rect opacity="0.01" x="361.2" y="118" width="20" height="20" fill="white"></rect> <path fill-rule="evenodd" clip-rule="evenodd" d="M371.2 122.177L377.486 134.75H364.913L371.2 122.177ZM371.2 120.5L363.7 135.5H378.7L371.2 120.5ZM371.495 131.668L371.618 127.477H370.781L370.903 131.668H371.495ZM370.685 132.905C370.685 132.591 370.903 132.365 371.209 132.365C371.513 132.365 371.713 132.591 371.713 132.905C371.713 133.21 371.513 133.446 371.191 133.446C370.895 133.446 370.685 133.21 370.685 132.905Z" fill="#0073CF"></path> <path d="M399.408 132H392.48V121.04H399.152V122.064H393.84V125.696H398.32V126.688H393.84V130.96H399.408V132ZM412.241 132H410.929V126.832C410.929 125.712 410.705 125.088 409.505 125.088C408.817 125.088 407.841 125.376 407.249 125.76C407.329 126.112 407.345 126.544 407.345 126.816V132H406.049V126.56C406.049 125.536 405.553 125.088 404.785 125.088C404.017 125.088 403.153 125.424 402.465 125.856V132H401.169V124.192H402.433L402.449 124.88L402.513 124.928C403.377 124.352 404.353 124.016 405.153 124.016C405.985 124.016 406.641 124.304 407.041 124.96C407.793 124.432 408.961 124.016 409.857 124.016C412.065 124.016 412.241 125.472 412.241 126.624V132ZM417.412 124.976C415.908 124.976 415.412 126.192 415.316 127.52H419.3C419.3 126.016 418.852 124.976 417.412 124.976ZM417.38 124.016C420.5 124.016 420.532 126.784 420.532 127.744V128.368H415.3C415.284 129.824 415.78 131.136 417.524 131.136C418.436 131.136 419.14 130.944 420.02 130.576L420.34 131.408C419.412 131.904 418.468 132.128 417.428 132.128C414.644 132.128 413.956 130.288 413.956 128.112C413.956 126.72 414.436 124.016 417.38 124.016ZM423.581 124.192L423.629 125.6C423.645 125.6 423.645 125.6 423.661 125.616C424.365 124.496 425.581 124.016 426.605 124.016V125.28C425.789 125.296 424.605 125.52 423.677 126.672V132H422.349V124.192H423.581ZM430.804 124.016C431.316 124.016 431.828 124.048 432.26 124.192C433.124 124.144 433.972 124.08 434.82 124.016V124.96H433.396L433.364 125.024C433.78 125.408 433.956 126.064 433.956 126.608C433.956 128.112 432.708 129.216 430.836 129.216H429.812C429.012 129.216 428.5 129.712 428.5 130.16C428.5 130.528 428.772 130.784 429.444 130.784H431.428C433.54 130.784 434.596 131.472 434.596 132.864C434.596 134.352 433.06 135.456 430.644 135.456C428.068 135.456 427.268 134.4 427.268 133.312C427.268 132.48 427.812 131.856 428.356 131.568C427.652 131.408 427.364 130.88 427.364 130.32C427.364 129.472 428.068 128.848 428.788 128.72V128.64C428.244 128.336 427.812 127.664 427.812 126.672C427.812 124.816 429.364 124.016 430.804 124.016ZM431.252 131.712H429.54C428.996 131.92 428.548 132.464 428.548 133.056C428.548 133.824 429.124 134.496 430.788 134.496C432.148 134.496 433.252 133.952 433.252 132.928C433.252 132.288 432.804 131.712 431.252 131.712ZM432.612 126.592C432.612 125.856 432.196 125.008 430.868 125.008C429.796 125.008 429.14 125.632 429.14 126.608C429.14 127.632 429.844 128.256 430.852 128.256C431.876 128.256 432.612 127.664 432.612 126.592ZM439.489 124.976C437.985 124.976 437.489 126.192 437.393 127.52H441.377C441.377 126.016 440.929 124.976 439.489 124.976ZM439.457 124.016C442.577 124.016 442.609 126.784 442.609 127.744V128.368H437.377C437.361 129.824 437.857 131.136 439.601 131.136C440.513 131.136 441.217 130.944 442.097 130.576L442.417 131.408C441.489 131.904 440.545 132.128 439.505 132.128C436.721 132.128 436.033 130.288 436.033 128.112C436.033 126.72 436.513 124.016 439.457 124.016ZM450.633 132H449.337V126.848C449.337 125.76 449.209 125.088 447.977 125.088C447.241 125.088 446.265 125.472 445.593 125.856V132H444.281V124.192H445.561L445.577 124.864L445.625 124.896C446.505 124.336 447.593 124.016 448.345 124.016C450.473 124.016 450.633 125.36 450.633 126.528V132ZM455.87 124.016C456.67 124.016 457.55 124.192 458.254 124.64L457.79 125.568C457.022 125.152 456.446 125.072 455.934 125.072C454.398 125.072 453.678 126.288 453.678 128.144C453.678 129.76 454.142 131.088 455.838 131.088C456.574 131.088 457.182 130.944 458.078 130.448L458.478 131.312C457.79 131.824 456.798 132.128 455.774 132.128C453.214 132.128 452.318 130.528 452.318 128.192C452.318 126.544 452.942 124.016 455.87 124.016ZM462.696 130.704L464.712 124.192H466.008C464.984 127.296 463.96 130.4 462.92 133.488C462.44 134.928 461.752 135.456 460.6 135.456C460.28 135.456 459.736 135.424 458.904 135.184C458.952 134.864 459.032 134.544 459.096 134.208C459.672 134.32 460.024 134.384 460.392 134.384C460.984 134.384 461.4 134.224 461.72 133.248L462.04 132.288C461.08 129.6 460.136 126.896 459.176 124.192H460.52C461.224 126.368 461.928 128.528 462.616 130.704H462.696ZM472.324 132V125.152H471.236V124.448L472.34 124.16V122.88C472.34 121.328 473.204 120.48 474.852 120.48C475.3 120.48 475.924 120.528 476.484 120.672L476.308 121.616C475.924 121.552 475.46 121.504 475.124 121.504C474.132 121.504 473.604 121.856 473.604 122.864V124.192H475.892V125.152H473.604L473.588 132H472.324ZM479.666 132.144C477.538 132.144 477.41 130.8 477.41 129.648V124.192H478.706V129.328C478.706 130.416 478.834 131.072 480.05 131.072C480.642 131.072 481.57 130.752 482.322 130.08V124.192H483.602V132H482.37L482.322 131.088L482.29 131.056C481.266 131.968 480.21 132.144 479.666 132.144ZM491.834 132H490.538V126.848C490.538 125.76 490.41 125.088 489.178 125.088C488.442 125.088 487.466 125.472 486.794 125.856V132H485.482V124.192H486.762L486.778 124.864L486.826 124.896C487.706 124.336 488.794 124.016 489.546 124.016C491.674 124.016 491.834 125.36 491.834 126.528V132ZM496.671 124.016C497.263 124.016 498.159 124.144 498.895 124.592V120.624H500.207V132H499.023L498.959 131.232C498.943 131.232 498.943 131.216 498.927 131.216C498.207 131.792 497.247 132.112 496.431 132.112C494.207 132.112 493.519 130.336 493.519 128.24C493.519 125.856 494.367 124.016 496.671 124.016ZM498.895 130.272V125.6C498.447 125.328 497.599 125.04 496.895 125.04C495.807 125.04 494.863 125.76 494.863 128.24C494.863 130.448 495.663 131.136 496.831 131.136C497.455 131.136 498.431 130.704 498.895 130.272Z" fill="#0073CF"></path> <rect opacity="0.01" x="361.2" y="144" width="20" height="20" fill="white"></rect> <path fill-rule="evenodd" clip-rule="evenodd" d="M376.866 158.166L378.919 156.902L378.482 156.193L375.723 157.892C375.742 157.859 375.763 157.825 375.784 157.791C375.805 157.758 375.826 157.724 375.845 157.691C376.631 156.329 376.843 154.71 376.435 153.191C376.177 152.307 375.557 151.574 374.729 151.172C374.279 150.961 373.788 150.854 373.291 150.858C371.468 150.858 369.515 152.207 368.434 154.216C367.798 155.357 367.536 156.668 367.684 157.966L366.663 157.343C365.799 156 365.353 154.43 365.384 152.833C365.384 149.339 367.265 146.499 369.578 146.499C371.017 146.499 372.388 147.67 373.156 149.555L373.927 149.241C373.033 147.036 371.366 145.666 369.578 145.666C366.806 145.666 364.55 148.883 364.55 152.833C364.543 154.083 364.782 155.322 365.255 156.48L363.917 155.666L363.482 156.377L366.057 157.95L366.068 157.966L366.075 157.961L366.408 158.165H362.866V158.999H379.533V158.166H376.866ZM369.167 154.611C370.108 152.861 371.765 151.694 373.291 151.694C373.665 151.691 374.035 151.77 374.375 151.928C374.993 152.234 375.453 152.787 375.643 153.451C375.982 154.753 375.791 156.137 375.112 157.299C374.943 157.605 374.748 157.896 374.529 158.169H368.569C368.34 156.95 368.552 155.689 369.167 154.611ZM372.866 159.833H364.533V160.666H372.866V159.833ZM373.7 159.833H377.866V160.666H373.7V159.833ZM376.2 161.499H366.2V162.333H376.2V161.499Z" fill="#0073CF"></path> <path d="M399.536 150.128C399.536 151.488 398.752 152.816 397.312 153.184L399.728 158H398.224L395.952 153.344H393.808V158H392.448V147.04H396.16C398.48 147.04 399.536 148.432 399.536 150.128ZM393.808 152.336H395.984C397.216 152.336 398.128 151.744 398.128 150.176C398.128 148.768 397.2 148.064 395.952 148.064H393.808V152.336ZM404.762 150.976C403.258 150.976 402.762 152.192 402.666 153.52H406.65C406.65 152.016 406.202 150.976 404.762 150.976ZM404.73 150.016C407.85 150.016 407.882 152.784 407.882 153.744V154.368H402.65C402.634 155.824 403.13 157.136 404.874 157.136C405.786 157.136 406.49 156.944 407.37 156.576L407.69 157.408C406.762 157.904 405.818 158.128 404.778 158.128C401.994 158.128 401.306 156.288 401.306 154.112C401.306 152.72 401.786 150.016 404.73 150.016ZM410.546 148.352L411.378 148.208V150.192H413.73V151.136H411.362V155.808C411.362 156.56 411.57 157.088 412.45 157.088C412.818 157.088 413.314 156.992 413.922 156.816L414.13 157.696C413.554 157.968 412.818 158.128 412.178 158.128C410.786 158.128 410.082 157.488 410.082 156.208V151.136H408.946V150.448L410.146 150.08L410.546 148.352ZM416.995 158H415.699V150.192H416.995V158ZM417.235 148.144C417.235 148.592 416.835 148.992 416.355 148.992C415.907 148.992 415.507 148.592 415.507 148.144C415.507 147.664 415.907 147.28 416.355 147.28C416.835 147.28 417.235 147.664 417.235 148.144ZM420.716 150.192L420.764 151.6C420.78 151.6 420.78 151.6 420.796 151.616C421.5 150.496 422.716 150.016 423.74 150.016V151.28C422.924 151.296 421.74 151.52 420.812 152.672V158H419.484V150.192H420.716ZM428.083 150.976C426.579 150.976 426.083 152.192 425.987 153.52H429.971C429.971 152.016 429.523 150.976 428.083 150.976ZM428.051 150.016C431.171 150.016 431.203 152.784 431.203 153.744V154.368H425.971C425.955 155.824 426.451 157.136 428.195 157.136C429.107 157.136 429.811 156.944 430.691 156.576L431.011 157.408C430.083 157.904 429.139 158.128 428.099 158.128C425.315 158.128 424.627 156.288 424.627 154.112C424.627 152.72 425.107 150.016 428.051 150.016ZM443.947 158H442.635V152.832C442.635 151.712 442.411 151.088 441.211 151.088C440.523 151.088 439.547 151.376 438.955 151.76C439.035 152.112 439.051 152.544 439.051 152.816V158H437.755V152.56C437.755 151.536 437.259 151.088 436.491 151.088C435.723 151.088 434.859 151.424 434.171 151.856V158H432.875V150.192H434.139L434.155 150.88L434.219 150.928C435.083 150.352 436.059 150.016 436.859 150.016C437.691 150.016 438.347 150.304 438.747 150.96C439.499 150.432 440.667 150.016 441.563 150.016C443.771 150.016 443.947 151.472 443.947 152.624V158ZM449.119 150.976C447.615 150.976 447.119 152.192 447.023 153.52H451.007C451.007 152.016 450.559 150.976 449.119 150.976ZM449.087 150.016C452.207 150.016 452.239 152.784 452.239 153.744V154.368H447.007C446.991 155.824 447.487 157.136 449.231 157.136C450.143 157.136 450.847 156.944 451.727 156.576L452.047 157.408C451.119 157.904 450.175 158.128 449.135 158.128C446.351 158.128 445.663 156.288 445.663 154.112C445.663 152.72 446.143 150.016 449.087 150.016ZM460.263 158H458.967V152.848C458.967 151.76 458.839 151.088 457.607 151.088C456.871 151.088 455.895 151.472 455.223 151.856V158H453.911V150.192H455.191L455.207 150.864L455.255 150.896C456.135 150.336 457.223 150.016 457.975 150.016C460.103 150.016 460.263 151.36 460.263 152.528V158ZM463.132 148.352L463.964 148.208V150.192H466.316V151.136H463.948V155.808C463.948 156.56 464.156 157.088 465.036 157.088C465.404 157.088 465.9 156.992 466.508 156.816L466.716 157.696C466.14 157.968 465.404 158.128 464.764 158.128C463.372 158.128 462.668 157.488 462.668 156.208V151.136H461.532V150.448L462.732 150.08L463.132 148.352Z" fill="#0073CF"></path> <rect opacity="0.01" x="361.2" y="170" width="20" height="20" fill="white"></rect> <rect opacity="0.01" x="361.2" y="170" width="20" height="20" fill="white"></rect> <path fill-rule="evenodd" clip-rule="evenodd" d="M367.556 183.42C367.556 185.891 367.917 185.974 371.2 185.974C374.516 185.974 374.822 185.904 374.821 183.42C374.802 182.343 375.155 181.293 375.821 180.446C376.582 179.464 376.984 178.251 376.96 177.009C377.05 175.456 376.473 173.938 375.372 172.837C374.272 171.737 372.753 171.159 371.2 171.249C369.646 171.159 368.128 171.737 367.028 172.837C365.927 173.938 365.349 175.456 365.44 177.009C365.416 178.249 365.813 179.46 366.567 180.444C367.226 181.294 367.575 182.344 367.556 183.42ZM367.614 173.423C368.559 172.479 369.867 171.99 371.2 172.083C372.533 171.99 373.84 172.48 374.784 173.424C375.729 174.369 376.217 175.677 376.124 177.009C376.143 178.086 375.79 179.137 375.124 179.984C374.364 180.966 373.962 182.178 373.986 183.42C373.986 184.378 373.977 184.807 373.771 184.944C372.932 185.166 372.059 185.233 371.197 185.141C370.331 185.233 369.455 185.165 368.613 184.943C368.399 184.802 368.389 184.349 368.389 183.42C368.413 182.181 368.015 180.97 367.262 179.985C366.602 179.135 366.253 178.085 366.273 177.009C366.18 175.676 366.669 174.368 367.614 173.423ZM373.742 187.282H368.783C368.553 187.282 368.367 187.095 368.367 186.865C368.367 186.635 368.553 186.449 368.783 186.449H373.742C373.972 186.449 374.159 186.635 374.159 186.865C374.159 187.095 373.972 187.282 373.742 187.282ZM369.324 188.749H373.2C373.43 188.749 373.617 188.563 373.617 188.333C373.617 188.103 373.43 187.916 373.2 187.916H369.324C369.094 187.916 368.907 188.103 368.907 188.333C368.907 188.563 369.094 188.749 369.324 188.749Z" fill="#0073CF"></path> <path d="M396.944 172.864C398.128 172.864 399.2 173.2 399.84 173.648L399.312 174.624C398.64 174.16 397.92 173.936 396.928 173.936C394.704 173.936 393.552 175.744 393.552 178.608C393.552 180.96 394.096 183.04 396.896 183.04C397.44 183.04 398.48 182.944 399.584 182.368L399.984 183.344C399.216 183.856 397.728 184.128 396.752 184.128C393.344 184.128 392.128 181.936 392.128 178.592C392.128 176.24 393.152 172.864 396.944 172.864ZM402.761 176.816L402.889 176.88C403.833 176.384 404.921 176.016 405.625 176.016C407.753 176.016 407.865 177.36 407.865 178.528V184H406.569V178.848C406.569 177.76 406.457 177.088 405.209 177.088C404.473 177.088 403.497 177.472 402.825 177.856V184H401.513V172.624H402.809V175.152L402.761 176.816ZM411.469 184H410.173V176.192H411.469V184ZM411.709 174.144C411.709 174.592 411.309 174.992 410.829 174.992C410.381 174.992 409.981 174.592 409.981 174.144C409.981 173.664 410.381 173.28 410.829 173.28C411.309 173.28 411.709 173.664 411.709 174.144ZM415.35 172.624V184H414.054V172.624H415.35ZM420.425 176.016C421.017 176.016 421.913 176.144 422.649 176.592V172.624H423.961V184H422.777L422.713 183.232C422.697 183.232 422.697 183.216 422.681 183.216C421.961 183.792 421.001 184.112 420.185 184.112C417.961 184.112 417.273 182.336 417.273 180.24C417.273 177.856 418.121 176.016 420.425 176.016ZM422.649 182.272V177.6C422.201 177.328 421.353 177.04 420.649 177.04C419.561 177.04 418.617 177.76 418.617 180.24C418.617 182.448 419.417 183.136 420.585 183.136C421.209 183.136 422.185 182.704 422.649 182.272ZM425.882 173.456C425.882 173.008 426.266 172.608 426.746 172.608C427.322 172.608 427.69 173.056 427.69 173.648C427.69 174.544 426.986 175.648 426.058 176.112L425.738 175.68C426.154 175.296 426.41 174.848 426.458 174.272C426.09 174.16 425.882 173.856 425.882 173.456ZM428.321 183.52L428.737 182.624C429.729 183.072 430.593 183.152 431.153 183.152C432.145 183.152 432.929 182.848 432.929 181.904C432.929 181.072 432.129 180.784 431.249 180.48C429.889 180 428.609 179.648 428.609 178.208C428.609 176.704 429.873 176.016 431.441 176.016C432.097 176.016 433.089 176.16 433.777 176.576L433.377 177.488C432.577 177.168 431.969 177.072 431.425 177.072C430.609 177.072 429.841 177.36 429.841 178.224C429.841 178.896 430.865 179.2 431.505 179.408C432.817 179.824 434.193 180.24 434.193 181.888C434.193 183.456 432.897 184.128 431.105 184.128C430.177 184.128 429.025 183.92 428.321 183.52ZM443.441 176.976C441.937 176.976 441.441 178.192 441.345 179.52H445.329C445.329 178.016 444.881 176.976 443.441 176.976ZM443.409 176.016C446.529 176.016 446.561 178.784 446.561 179.744V180.368H441.329C441.313 181.824 441.809 183.136 443.553 183.136C444.465 183.136 445.169 182.944 446.049 182.576L446.369 183.408C445.441 183.904 444.497 184.128 443.457 184.128C440.673 184.128 439.985 182.288 439.985 180.112C439.985 178.72 440.465 176.016 443.409 176.016ZM451.193 176.016C451.785 176.016 452.681 176.144 453.417 176.592V172.624H454.729V184H453.545L453.481 183.232C453.465 183.232 453.465 183.216 453.449 183.216C452.729 183.792 451.769 184.112 450.953 184.112C448.729 184.112 448.041 182.336 448.041 180.24C448.041 177.856 448.889 176.016 451.193 176.016ZM453.417 182.272V177.6C452.969 177.328 452.121 177.04 451.417 177.04C450.329 177.04 449.385 177.76 449.385 180.24C449.385 182.448 450.185 183.136 451.353 183.136C451.977 183.136 452.953 182.704 453.417 182.272ZM458.843 184.144C456.715 184.144 456.587 182.8 456.587 181.648V176.192H457.883V181.328C457.883 182.416 458.011 183.072 459.227 183.072C459.819 183.072 460.747 182.752 461.499 182.08V176.192H462.779V184H461.547L461.499 183.088L461.467 183.056C460.443 183.968 459.387 184.144 458.843 184.144ZM468.02 176.016C468.82 176.016 469.7 176.192 470.404 176.64L469.94 177.568C469.172 177.152 468.596 177.072 468.084 177.072C466.548 177.072 465.828 178.288 465.828 180.144C465.828 181.76 466.292 183.088 467.988 183.088C468.724 183.088 469.332 182.944 470.228 182.448L470.628 183.312C469.94 183.824 468.948 184.128 467.924 184.128C465.364 184.128 464.468 182.528 464.468 180.192C464.468 178.544 465.092 176.016 468.02 176.016ZM475.278 176.016C476.958 176.016 477.934 176.704 477.934 178.624V184H476.782L476.702 183.152C476.702 183.152 476.686 183.136 476.67 183.136C475.47 184.096 474.462 184.112 473.966 184.112C472.158 184.112 471.662 182.864 471.662 181.936C471.662 180.464 472.782 179.648 474.318 179.568L476.67 179.44V178.88C476.67 177.6 476.334 177.04 474.99 177.04C474.206 177.04 473.31 177.232 472.526 177.488C472.446 177.2 472.366 176.912 472.27 176.624C473.166 176.24 474.318 176.016 475.278 176.016ZM476.67 180.272L474.638 180.4C473.582 180.464 473.054 180.976 473.054 181.808C473.054 182.736 473.502 183.2 474.51 183.2C475.182 183.2 475.934 182.848 476.67 182.208V180.272ZM480.812 174.352L481.644 174.208V176.192H483.996V177.136H481.628V181.808C481.628 182.56 481.836 183.088 482.716 183.088C483.084 183.088 483.58 182.992 484.188 182.816L484.396 183.696C483.82 183.968 483.084 184.128 482.444 184.128C481.052 184.128 480.348 183.488 480.348 182.208V177.136H479.212V176.448L480.412 176.08L480.812 174.352ZM487.261 184H485.965V176.192H487.261V184ZM487.501 174.144C487.501 174.592 487.101 174.992 486.621 174.992C486.173 174.992 485.773 174.592 485.773 174.144C485.773 173.664 486.173 173.28 486.621 173.28C487.101 173.28 487.501 173.664 487.501 174.144ZM496.358 180.096C496.358 182.096 495.542 184.128 492.806 184.128C490.246 184.128 489.446 182.24 489.446 180.128C489.446 178.048 490.406 176.016 492.966 176.016C495.574 176.016 496.358 178.048 496.358 180.096ZM494.998 180.128C494.998 178.736 494.694 177.024 492.966 177.024C491.238 177.024 490.806 178.656 490.806 180.128C490.806 181.68 491.126 183.12 492.966 183.12C494.662 183.12 494.998 181.536 494.998 180.128ZM504.421 184H503.125V178.848C503.125 177.76 502.997 177.088 501.765 177.088C501.029 177.088 500.053 177.472 499.381 177.856V184H498.069V176.192H499.349L499.365 176.864L499.413 176.896C500.293 176.336 501.381 176.016 502.133 176.016C504.261 176.016 504.421 177.36 504.421 178.528V184Z" fill="#0073CF"></path> <path fill-rule="evenodd" clip-rule="evenodd" d="M371.293 211.584C367.681 211.589 364.579 209.018 363.912 205.468C363.245 201.918 365.204 198.397 368.572 197.091C371.94 195.785 375.76 197.066 377.661 200.137L378.368 199.697C376.408 196.531 372.585 195.05 369.003 196.069C365.421 197.088 362.95 200.36 362.95 204.084C362.95 207.808 365.421 211.08 369.003 212.099C372.585 213.118 376.408 211.637 378.368 208.471L377.661 208.031C376.302 210.243 373.89 211.589 371.293 211.584ZM373.71 202.834V202.584C373.6 201.548 372.75 200.748 371.71 200.701V199.084H370.877V200.701C369.836 200.748 368.986 201.548 368.877 202.584C368.877 203.658 369.672 204.301 371.24 204.496C372.877 204.702 372.877 205.342 372.877 205.584C372.877 206.172 372.152 206.667 371.293 206.667C370.435 206.667 369.71 206.172 369.71 205.584V205.334H368.877V205.584C368.986 206.62 369.836 207.42 370.877 207.467V209.084H371.71V207.467C372.75 207.42 373.6 206.62 373.71 205.584C373.71 204.511 372.913 203.867 371.343 203.667C369.71 203.464 369.71 202.824 369.71 202.584C369.71 202.001 370.435 201.501 371.293 201.501C372.152 201.501 372.877 201.997 372.877 202.584V202.834H373.71ZM379.627 204.084L376.714 207.002L376.125 206.412L378.037 204.501H374.627V203.667H378.037L376.131 201.763L376.72 201.174L379.627 204.084Z" fill="#0073CF"></path> <path d="M400.288 210H398.864C398.56 209.056 398.272 208.096 397.968 207.136H393.648C393.344 208.096 393.056 209.056 392.752 210H391.36C392.656 206.048 393.904 202.368 394.976 199.04H396.704L400.288 210ZM397.648 206.096C397.168 204.48 396.672 202.832 396.16 201.232L395.84 200.16H395.792L395.472 201.248C394.992 202.832 394.576 204.208 393.984 206.096H397.648ZM404.363 202.016C404.955 202.016 405.851 202.144 406.587 202.592V198.624H407.899V210H406.715L406.651 209.232C406.635 209.232 406.635 209.216 406.619 209.216C405.899 209.792 404.939 210.112 404.123 210.112C401.899 210.112 401.211 208.336 401.211 206.24C401.211 203.856 402.059 202.016 404.363 202.016ZM406.587 208.272V203.6C406.139 203.328 405.291 203.04 404.587 203.04C403.499 203.04 402.555 203.76 402.555 206.24C402.555 208.448 403.355 209.136 404.523 209.136C405.147 209.136 406.123 208.704 406.587 208.272ZM412.717 202.016C413.309 202.016 414.205 202.144 414.941 202.592V198.624H416.253V210H415.069L415.005 209.232C414.989 209.232 414.989 209.216 414.973 209.216C414.253 209.792 413.293 210.112 412.477 210.112C410.253 210.112 409.565 208.336 409.565 206.24C409.565 203.856 410.413 202.016 412.717 202.016ZM414.941 208.272V203.6C414.493 203.328 413.645 203.04 412.941 203.04C411.853 203.04 410.909 203.76 410.909 206.24C410.909 208.448 411.709 209.136 412.877 209.136C413.501 209.136 414.477 208.704 414.941 208.272ZM419.839 210H418.543V202.192H419.839V210ZM420.079 200.144C420.079 200.592 419.679 200.992 419.199 200.992C418.751 200.992 418.351 200.592 418.351 200.144C418.351 199.664 418.751 199.28 419.199 199.28C419.679 199.28 420.079 199.664 420.079 200.144ZM423.175 200.352L424.007 200.208V202.192H426.359V203.136H423.991V207.808C423.991 208.56 424.199 209.088 425.079 209.088C425.447 209.088 425.943 208.992 426.551 208.816L426.759 209.696C426.183 209.968 425.447 210.128 424.807 210.128C423.415 210.128 422.711 209.488 422.711 208.208V203.136H421.575V202.448L422.775 202.08L423.175 200.352ZM429.624 210H428.328V202.192H429.624V210ZM429.864 200.144C429.864 200.592 429.464 200.992 428.984 200.992C428.536 200.992 428.136 200.592 428.136 200.144C428.136 199.664 428.536 199.28 428.984 199.28C429.464 199.28 429.864 199.664 429.864 200.144ZM438.721 206.096C438.721 208.096 437.905 210.128 435.169 210.128C432.609 210.128 431.809 208.24 431.809 206.128C431.809 204.048 432.769 202.016 435.329 202.016C437.937 202.016 438.721 204.048 438.721 206.096ZM437.361 206.128C437.361 204.736 437.057 203.024 435.329 203.024C433.601 203.024 433.169 204.656 433.169 206.128C433.169 207.68 433.489 209.12 435.329 209.12C437.025 209.12 437.361 207.536 437.361 206.128ZM446.784 210H445.488V204.848C445.488 203.76 445.36 203.088 444.128 203.088C443.392 203.088 442.416 203.472 441.744 203.856V210H440.432V202.192H441.712L441.728 202.864L441.776 202.896C442.656 202.336 443.744 202.016 444.496 202.016C446.624 202.016 446.784 203.36 446.784 204.528V210ZM451.941 202.016C453.621 202.016 454.597 202.704 454.597 204.624V210H453.445L453.365 209.152C453.365 209.152 453.349 209.136 453.333 209.136C452.133 210.096 451.125 210.112 450.629 210.112C448.821 210.112 448.325 208.864 448.325 207.936C448.325 206.464 449.445 205.648 450.981 205.568L453.333 205.44V204.88C453.333 203.6 452.997 203.04 451.653 203.04C450.869 203.04 449.973 203.232 449.189 203.488C449.109 203.2 449.029 202.912 448.933 202.624C449.829 202.24 450.981 202.016 451.941 202.016ZM453.333 206.272L451.301 206.4C450.245 206.464 449.717 206.976 449.717 207.808C449.717 208.736 450.165 209.2 451.173 209.2C451.845 209.2 452.597 208.848 453.333 208.208V206.272ZM458.019 198.624V210H456.723V198.624H458.019ZM467.463 202.016C468.055 202.016 468.951 202.144 469.687 202.592V198.624H470.999V210H469.815L469.751 209.232C469.735 209.232 469.735 209.216 469.719 209.216C468.999 209.792 468.039 210.112 467.223 210.112C464.999 210.112 464.311 208.336 464.311 206.24C464.311 203.856 465.159 202.016 467.463 202.016ZM469.687 208.272V203.6C469.239 203.328 468.391 203.04 467.687 203.04C466.599 203.04 465.655 203.76 465.655 206.24C465.655 208.448 466.455 209.136 467.623 209.136C468.247 209.136 469.223 208.704 469.687 208.272ZM476.153 202.976C474.649 202.976 474.153 204.192 474.057 205.52H478.041C478.041 204.016 477.593 202.976 476.153 202.976ZM476.121 202.016C479.241 202.016 479.273 204.784 479.273 205.744V206.368H474.041C474.025 207.824 474.521 209.136 476.265 209.136C477.177 209.136 477.881 208.944 478.761 208.576L479.081 209.408C478.153 209.904 477.209 210.128 476.169 210.128C473.385 210.128 472.697 208.288 472.697 206.112C472.697 204.72 473.177 202.016 476.121 202.016ZM482.209 202.64L482.289 202.704C483.201 202.192 483.985 202.016 484.641 202.016C486.913 202.016 487.585 203.76 487.585 206.128C487.585 208.304 486.785 210.128 484.209 210.128C483.153 210.128 481.953 209.888 480.945 209.424V198.624H482.257V200.928L482.209 202.64ZM484.385 203.104C483.633 203.104 482.833 203.424 482.257 203.76V208.736C482.913 209.024 483.585 209.104 484.129 209.104C485.441 209.104 486.241 208.368 486.241 206.16C486.241 203.68 485.473 203.104 484.385 203.104ZM490.291 200.352L491.123 200.208V202.192H493.475V203.136H491.107V207.808C491.107 208.56 491.315 209.088 492.195 209.088C492.563 209.088 493.059 208.992 493.667 208.816L493.875 209.696C493.299 209.968 492.563 210.128 491.923 210.128C490.531 210.128 489.827 209.488 489.827 208.208V203.136H488.691V202.448L489.891 202.08L490.291 200.352ZM393.408 226.8L393.488 226.864C394.128 226.352 394.992 226.016 395.824 226.016C398.064 226.016 398.752 227.808 398.752 229.92C398.752 232.208 397.92 234.144 395.616 234.144C395.008 234.144 394.064 234.048 393.424 233.6V237.328H392.128V226.192H393.392L393.408 226.8ZM393.44 227.888V232.608C393.776 232.864 394.688 233.168 395.392 233.168C396.496 233.168 397.424 232.336 397.424 229.888C397.424 227.728 396.64 227.088 395.472 227.088C394.832 227.088 393.808 227.52 393.44 227.888ZM403.761 226.016C405.441 226.016 406.417 226.704 406.417 228.624V234H405.265L405.185 233.152C405.185 233.152 405.169 233.136 405.153 233.136C403.953 234.096 402.945 234.112 402.449 234.112C400.641 234.112 400.145 232.864 400.145 231.936C400.145 230.464 401.265 229.648 402.801 229.568L405.153 229.44V228.88C405.153 227.6 404.817 227.04 403.473 227.04C402.689 227.04 401.793 227.232 401.009 227.488C400.929 227.2 400.849 226.912 400.753 226.624C401.649 226.24 402.801 226.016 403.761 226.016ZM405.153 230.272L403.121 230.4C402.065 230.464 401.537 230.976 401.537 231.808C401.537 232.736 401.985 233.2 402.993 233.2C403.665 233.2 404.417 232.848 405.153 232.208V230.272ZM411.152 232.704L413.168 226.192H414.464C413.44 229.296 412.416 232.4 411.376 235.488C410.896 236.928 410.208 237.456 409.056 237.456C408.736 237.456 408.192 237.424 407.36 237.184C407.408 236.864 407.488 236.544 407.552 236.208C408.128 236.32 408.48 236.384 408.848 236.384C409.44 236.384 409.856 236.224 410.176 235.248L410.496 234.288C409.536 231.6 408.592 228.896 407.632 226.192H408.976C409.68 228.368 410.384 230.528 411.072 232.704H411.152ZM426.714 234H425.402V228.832C425.402 227.712 425.178 227.088 423.978 227.088C423.29 227.088 422.314 227.376 421.722 227.76C421.802 228.112 421.818 228.544 421.818 228.816V234H420.522V228.56C420.522 227.536 420.026 227.088 419.258 227.088C418.49 227.088 417.626 227.424 416.938 227.856V234H415.642V226.192H416.906L416.922 226.88L416.986 226.928C417.85 226.352 418.826 226.016 419.626 226.016C420.458 226.016 421.114 226.304 421.514 226.96C422.266 226.432 423.434 226.016 424.33 226.016C426.538 226.016 426.714 227.472 426.714 228.624V234ZM431.886 226.976C430.382 226.976 429.886 228.192 429.79 229.52H433.774C433.774 228.016 433.326 226.976 431.886 226.976ZM431.854 226.016C434.974 226.016 435.006 228.784 435.006 229.744V230.368H429.774C429.758 231.824 430.254 233.136 431.998 233.136C432.91 233.136 433.614 232.944 434.494 232.576L434.814 233.408C433.886 233.904 432.942 234.128 431.902 234.128C429.118 234.128 428.43 232.288 428.43 230.112C428.43 228.72 428.91 226.016 431.854 226.016ZM443.03 234H441.734V228.848C441.734 227.76 441.606 227.088 440.374 227.088C439.638 227.088 438.662 227.472 437.99 227.856V234H436.678V226.192H437.958L437.974 226.864L438.022 226.896C438.902 226.336 439.99 226.016 440.742 226.016C442.87 226.016 443.03 227.36 443.03 228.528V234ZM445.898 224.352L446.73 224.208V226.192H449.082V227.136H446.714V231.808C446.714 232.56 446.922 233.088 447.802 233.088C448.17 233.088 448.666 232.992 449.274 232.816L449.482 233.696C448.906 233.968 448.17 234.128 447.53 234.128C446.138 234.128 445.434 233.488 445.434 232.208V227.136H444.298V226.448L445.498 226.08L445.898 224.352ZM450.316 233.52L450.732 232.624C451.724 233.072 452.588 233.152 453.148 233.152C454.14 233.152 454.924 232.848 454.924 231.904C454.924 231.072 454.124 230.784 453.244 230.48C451.884 230 450.604 229.648 450.604 228.208C450.604 226.704 451.868 226.016 453.436 226.016C454.092 226.016 455.084 226.16 455.772 226.576L455.372 227.488C454.572 227.168 453.964 227.072 453.42 227.072C452.604 227.072 451.836 227.36 451.836 228.224C451.836 228.896 452.86 229.2 453.5 229.408C454.812 229.824 456.188 230.24 456.188 231.888C456.188 233.456 454.892 234.128 453.1 234.128C452.172 234.128 451.02 233.92 450.316 233.52Z" fill="#0073CF"></path> </g> <defs> <clipPath id="clip0_2575_5912"> <rect width="160" height="76" fill="white" transform="translate(361.2)"></rect> </clipPath> <clipPath id="clip1_2575_5912"> <rect width="175" height="126" fill="white" transform="translate(361.2 116)"></rect> </clipPath> </defs> </svg>