<svg width="530" height="130" viewBox="0 0 530 130" fill="none" xmlns="http://www.w3.org/2000/svg">
<rect width="530" height="129.5" fill="white"/>
<path d="M121 98H101V102H121V98Z" fill="#012169"/>
<path d="M405 101.5H385V105.5H405V101.5Z" fill="#012169"/>
<path d="M405 94.5H385V98.5H405V94.5Z" fill="#012169"/>
<path d="M435.134 93.5H433.64V82.376H429.68V81.17H439.094V82.376H435.152L435.134 93.5ZM443.312 84.518C445.202 84.518 446.3 85.292 446.3 87.452V93.5H445.004L444.914 92.546C444.914 92.546 444.896 92.528 444.878 92.528C443.528 93.608 442.394 93.626 441.836 93.626C439.802 93.626 439.244 92.222 439.244 91.178C439.244 89.522 440.504 88.604 442.232 88.514L444.878 88.37V87.74C444.878 86.3 444.5 85.67 442.988 85.67C442.106 85.67 441.098 85.886 440.216 86.174C440.126 85.85 440.036 85.526 439.928 85.202C440.936 84.77 442.232 84.518 443.312 84.518ZM444.878 89.306L442.592 89.45C441.404 89.522 440.81 90.098 440.81 91.034C440.81 92.078 441.314 92.6 442.448 92.6C443.204 92.6 444.05 92.204 444.878 91.484V89.306ZM449.826 88.298L449.952 88.352C451.122 87.146 452.346 85.94 453.516 84.716H455.172C454.074 85.85 452.886 87.038 451.77 88.172C451.95 88.424 452.184 88.658 452.364 88.91L455.442 93.5H453.822C452.832 92.024 451.86 90.53 450.888 89.054L449.898 90.044V93.5H448.422V80.72H449.898V86.3L449.826 88.298ZM460.297 85.598C458.605 85.598 458.047 86.966 457.939 88.46H462.421C462.421 86.768 461.917 85.598 460.297 85.598ZM460.261 84.518C463.771 84.518 463.807 87.632 463.807 88.712V89.414H457.921C457.903 91.052 458.461 92.528 460.423 92.528C461.449 92.528 462.241 92.312 463.231 91.898L463.591 92.834C462.547 93.392 461.485 93.644 460.315 93.644C457.183 93.644 456.409 91.574 456.409 89.126C456.409 87.56 456.949 84.518 460.261 84.518ZM470.261 89.36H465.617V88.136H470.261V89.36ZM473.696 85.418L473.84 85.49C474.902 84.932 476.126 84.518 476.918 84.518C479.312 84.518 479.438 86.03 479.438 87.344V93.5H477.98V87.704C477.98 86.48 477.854 85.724 476.45 85.724C475.622 85.724 474.524 86.156 473.768 86.588V93.5H472.292V80.702H473.75V83.546L473.696 85.418ZM489.145 89.108C489.145 91.358 488.227 93.644 485.149 93.644C482.269 93.644 481.369 91.52 481.369 89.144C481.369 86.804 482.449 84.518 485.329 84.518C488.263 84.518 489.145 86.804 489.145 89.108ZM487.615 89.144C487.615 87.578 487.273 85.652 485.329 85.652C483.385 85.652 482.899 87.488 482.899 89.144C482.899 90.89 483.259 92.51 485.329 92.51C487.237 92.51 487.615 90.728 487.615 89.144ZM503.526 93.5H502.05V87.686C502.05 86.426 501.798 85.724 500.448 85.724C499.674 85.724 498.576 86.048 497.91 86.48C498 86.876 498.018 87.362 498.018 87.668V93.5H496.56V87.38C496.56 86.228 496.002 85.724 495.138 85.724C494.274 85.724 493.302 86.102 492.528 86.588V93.5H491.07V84.716H492.492L492.51 85.49L492.582 85.544C493.554 84.896 494.652 84.518 495.552 84.518C496.488 84.518 497.226 84.842 497.676 85.58C498.522 84.986 499.836 84.518 500.844 84.518C503.328 84.518 503.526 86.156 503.526 87.452V93.5ZM509.344 85.598C507.652 85.598 507.094 86.966 506.986 88.46H511.468C511.468 86.768 510.964 85.598 509.344 85.598ZM509.308 84.518C512.818 84.518 512.854 87.632 512.854 88.712V89.414H506.968C506.95 91.052 507.508 92.528 509.47 92.528C510.496 92.528 511.288 92.312 512.278 91.898L512.638 92.834C511.594 93.392 510.532 93.644 509.362 93.644C506.23 93.644 505.456 91.574 505.456 89.126C505.456 87.56 505.996 84.518 509.308 84.518ZM460.763 112.4L460.853 112.472C461.573 111.896 462.545 111.518 463.481 111.518C466.001 111.518 466.775 113.534 466.775 115.91C466.775 118.484 465.839 120.662 463.247 120.662C462.563 120.662 461.501 120.554 460.781 120.05V124.244H459.323V111.716H460.745L460.763 112.4ZM460.799 113.624V118.934C461.177 119.222 462.203 119.564 462.995 119.564C464.237 119.564 465.281 118.628 465.281 115.874C465.281 113.444 464.399 112.724 463.085 112.724C462.365 112.724 461.213 113.21 460.799 113.624ZM472.411 111.518C474.301 111.518 475.399 112.292 475.399 114.452V120.5H474.103L474.013 119.546C474.013 119.546 473.995 119.528 473.977 119.528C472.627 120.608 471.493 120.626 470.935 120.626C468.901 120.626 468.343 119.222 468.343 118.178C468.343 116.522 469.603 115.604 471.331 115.514L473.977 115.37V114.74C473.977 113.3 473.599 112.67 472.087 112.67C471.205 112.67 470.197 112.886 469.315 113.174C469.225 112.85 469.135 112.526 469.027 112.202C470.035 111.77 471.331 111.518 472.411 111.518ZM473.977 116.306L471.691 116.45C470.503 116.522 469.909 117.098 469.909 118.034C469.909 119.078 470.413 119.6 471.547 119.6C472.303 119.6 473.149 119.204 473.977 118.484V116.306ZM480.725 119.042L482.993 111.716H484.451C483.299 115.208 482.147 118.7 480.977 122.174C480.437 123.794 479.663 124.388 478.367 124.388C478.007 124.388 477.395 124.352 476.459 124.082C476.513 123.722 476.603 123.362 476.675 122.984C477.323 123.11 477.719 123.182 478.133 123.182C478.799 123.182 479.267 123.002 479.627 121.904L479.987 120.824C478.907 117.8 477.845 114.758 476.765 111.716H478.277C479.069 114.164 479.861 116.594 480.635 119.042H480.725Z" fill="black"/>
<g clip-path="url(#clip0_2485_5724)">
<path fill-rule="evenodd" clip-rule="evenodd" d="M481.161 45.8625V56.7555L494.42 47.2395V36.3789L481.161 45.8625Z" fill="#2F67B0"/>
<path fill-rule="evenodd" clip-rule="evenodd" d="M440.246 46.4398L481.161 56.7897V45.8968L440.246 35.5469V46.4398Z" fill="#80A8E0"/>
<path fill-rule="evenodd" clip-rule="evenodd" d="M481.161 45.9603L440.246 35.5781V35.9983L481.161 46.3741V45.9603Z" fill="#344E87"/>
<path fill-rule="evenodd" clip-rule="evenodd" d="M440.246 35.5453L481.161 45.8952L494.42 36.3792L453.499 26.0293L440.246 35.5453Z" fill="#99B8E1"/>
<path fill-rule="evenodd" clip-rule="evenodd" d="M444.177 34.7835L480.812 44.0796L490.509 37.1431L453.822 27.8598L444.177 34.7835ZM480.909 44.5257L480.812 44.4934L443.188 34.971L453.757 27.375L491.478 36.9104L480.909 44.5257Z" fill="#E4EDF8"/>
<path fill-rule="evenodd" clip-rule="evenodd" d="M481.161 49.9544V49.4436L440.246 39.0938V39.5721" fill="#344E87"/>
<path fill-rule="evenodd" clip-rule="evenodd" d="M481.161 53.4661V52.9554L440.246 42.6055V43.0839" fill="#344E87"/>
<path fill-rule="evenodd" clip-rule="evenodd" d="M481.161 56.7883V56.3746L440.246 45.9277V46.4384" fill="#344E87"/>
<path fill-rule="evenodd" clip-rule="evenodd" d="M456.246 50.4966L464.747 52.6364V41.7112L456.246 39.5391V50.4966Z" fill="#C41230"/>
<path fill-rule="evenodd" clip-rule="evenodd" d="M469.059 29.9922L456.278 39.5405L464.779 41.7126L477.553 32.132L469.059 29.9922Z" fill="#E31837"/>
<path fill-rule="evenodd" clip-rule="evenodd" d="M481.161 45.897V46.4077L494.42 36.9111V36.4004L481.161 45.897ZM481.161 49.446V49.9568L494.42 40.4667V39.9559L481.161 49.446ZM481.161 52.9563V53.4671L494.42 43.9834V43.4727L481.161 52.9563ZM481.161 56.3761V56.8222L494.42 47.2545V46.7438L481.161 56.3761Z" fill="#012169"/>
<path fill-rule="evenodd" clip-rule="evenodd" d="M503.49 34.8469L490.231 44.3952V33.5023L503.49 23.9863V34.8469Z" fill="#2F67B0"/>
<path fill-rule="evenodd" clip-rule="evenodd" d="M490.231 33.5023V34.013L503.49 24.497V23.9863L490.231 33.5023Z" fill="#012169"/>
<path fill-rule="evenodd" clip-rule="evenodd" d="M449.316 34.0453L490.231 44.3952V33.5022L449.316 23.1523V34.0453Z" fill="#80A8E0"/>
<path fill-rule="evenodd" clip-rule="evenodd" d="M490.231 33.5658L449.316 23.1836V23.5973L490.231 33.9796V33.5658Z" fill="#344E87"/>
<path fill-rule="evenodd" clip-rule="evenodd" d="M449.316 23.1527L490.231 33.5026L503.49 23.9866L462.575 13.6367L449.316 23.1527Z" fill="#99B8E1"/>
<path fill-rule="evenodd" clip-rule="evenodd" d="M453.247 22.389L489.882 31.6851L499.579 24.7162L462.924 15.4912L453.247 22.389ZM489.979 32.1312L489.882 32.0989L452.258 22.5441L462.828 14.9805L500.549 24.5611L489.979 32.1312Z" fill="#E4EDF8"/>
<path fill-rule="evenodd" clip-rule="evenodd" d="M490.231 37.595V37.0843L449.316 26.7344V27.2128" fill="#344E87"/>
<path fill-rule="evenodd" clip-rule="evenodd" d="M490.231 41.1047V40.594L449.316 30.2441V30.7225" fill="#344E87"/>
<path fill-rule="evenodd" clip-rule="evenodd" d="M490.231 44.429V43.9829L449.316 33.5684V34.0791" fill="#344E87"/>
<path fill-rule="evenodd" clip-rule="evenodd" d="M465.316 38.1383L473.817 40.2781V29.3206L465.316 27.1484V38.1383Z" fill="#C41230"/>
<path fill-rule="evenodd" clip-rule="evenodd" d="M465.349 27.1479L473.85 29.32L486.656 19.7394L478.129 17.5996L465.349 27.1479Z" fill="#E31837"/>
<path fill-rule="evenodd" clip-rule="evenodd" d="M490.231 33.5012V34.0119L503.49 24.5283V24.0176L490.231 33.5012ZM490.231 37.0826V37.5933L503.49 28.0709V27.5602L490.231 37.0826ZM490.231 40.5929V41.1036L503.49 31.5877V31.0899L490.231 40.5929ZM490.231 43.9804V44.4265L503.49 34.8782V34.3675L490.231 43.9804Z" fill="#012169"/>
</g>
<path d="M154.637 93.418H153.143V82.294H149.183V81.088H158.597V82.294H154.655L154.637 93.418ZM162.815 84.436C164.705 84.436 165.803 85.21 165.803 87.37V93.418H164.507L164.417 92.464C164.417 92.464 164.399 92.446 164.381 92.446C163.031 93.526 161.897 93.544 161.339 93.544C159.305 93.544 158.747 92.14 158.747 91.096C158.747 89.44 160.007 88.522 161.735 88.432L164.381 88.288V87.658C164.381 86.218 164.003 85.588 162.491 85.588C161.609 85.588 160.601 85.804 159.719 86.092C159.629 85.768 159.539 85.444 159.431 85.12C160.439 84.688 161.735 84.436 162.815 84.436ZM164.381 89.224L162.095 89.368C160.907 89.44 160.313 90.016 160.313 90.952C160.313 91.996 160.817 92.518 161.951 92.518C162.707 92.518 163.553 92.122 164.381 91.402V89.224ZM172.929 93.418C172.209 92.212 171.489 90.97 170.751 89.746C169.995 90.97 169.293 92.212 168.537 93.418H166.953L169.905 88.828C169.005 87.442 168.123 86.038 167.223 84.634H168.861C169.509 85.714 170.121 86.812 170.769 87.892C171.435 86.812 172.047 85.714 172.713 84.634H174.333C173.415 86.038 172.497 87.406 171.597 88.792C172.605 90.34 173.577 91.87 174.567 93.418H172.929ZM179.414 85.516C177.722 85.516 177.164 86.884 177.056 88.378H181.538C181.538 86.686 181.034 85.516 179.414 85.516ZM179.378 84.436C182.888 84.436 182.924 87.55 182.924 88.63V89.332H177.038C177.02 90.97 177.578 92.446 179.54 92.446C180.566 92.446 181.358 92.23 182.348 91.816L182.708 92.752C181.664 93.31 180.602 93.562 179.432 93.562C176.3 93.562 175.526 91.492 175.526 89.044C175.526 87.478 176.066 84.436 179.378 84.436ZM184.463 92.878L184.931 91.87C186.047 92.374 187.019 92.464 187.649 92.464C188.765 92.464 189.647 92.122 189.647 91.06C189.647 90.124 188.747 89.8 187.757 89.458C186.227 88.918 184.787 88.522 184.787 86.902C184.787 85.21 186.209 84.436 187.973 84.436C188.711 84.436 189.827 84.598 190.601 85.066L190.151 86.092C189.251 85.732 188.567 85.624 187.955 85.624C187.037 85.624 186.173 85.948 186.173 86.92C186.173 87.676 187.325 88.018 188.045 88.252C189.521 88.72 191.069 89.188 191.069 91.042C191.069 92.806 189.611 93.562 187.595 93.562C186.551 93.562 185.255 93.328 184.463 92.878ZM192.669 92.626C192.669 92.122 193.101 91.672 193.659 91.672C194.289 91.672 194.703 92.176 194.703 92.824C194.703 93.814 193.947 95.128 192.885 95.65L192.525 95.182C192.993 94.732 193.281 94.156 193.335 93.508C192.921 93.4 192.669 93.058 192.669 92.626ZM203.499 93.418H202.041V84.634H203.499V93.418ZM203.769 82.33C203.769 82.834 203.319 83.284 202.779 83.284C202.275 83.284 201.825 82.834 201.825 82.33C201.825 81.79 202.275 81.358 202.779 81.358C203.319 81.358 203.769 81.79 203.769 82.33ZM213.283 93.418H211.825V87.622C211.825 86.398 211.681 85.642 210.295 85.642C209.467 85.642 208.369 86.074 207.613 86.506V93.418H206.137V84.634H207.577L207.595 85.39L207.649 85.426C208.639 84.796 209.863 84.436 210.709 84.436C213.103 84.436 213.283 85.948 213.283 87.262V93.418ZM215.052 92.878L215.52 91.87C216.636 92.374 217.608 92.464 218.238 92.464C219.354 92.464 220.236 92.122 220.236 91.06C220.236 90.124 219.336 89.8 218.346 89.458C216.816 88.918 215.376 88.522 215.376 86.902C215.376 85.21 216.798 84.436 218.562 84.436C219.3 84.436 220.416 84.598 221.19 85.066L220.74 86.092C219.84 85.732 219.156 85.624 218.544 85.624C217.626 85.624 216.762 85.948 216.762 86.92C216.762 87.676 217.914 88.018 218.634 88.252C220.11 88.72 221.658 89.188 221.658 91.042C221.658 92.806 220.2 93.562 218.184 93.562C217.14 93.562 215.844 93.328 215.052 92.878ZM225.977 93.58C223.583 93.58 223.439 92.068 223.439 90.772V84.634H224.897V90.412C224.897 91.636 225.041 92.374 226.409 92.374C227.075 92.374 228.119 92.014 228.965 91.258V84.634H230.405V93.418H229.019L228.965 92.392L228.929 92.356C227.777 93.382 226.589 93.58 225.977 93.58ZM234.068 84.634L234.122 86.218C234.14 86.218 234.14 86.218 234.158 86.236C234.95 84.976 236.318 84.436 237.47 84.436V85.858C236.552 85.876 235.22 86.128 234.176 87.424V93.418H232.682V84.634H234.068ZM242.339 84.436C244.229 84.436 245.327 85.21 245.327 87.37V93.418H244.031L243.941 92.464C243.941 92.464 243.923 92.446 243.905 92.446C242.555 93.526 241.421 93.544 240.863 93.544C238.829 93.544 238.271 92.14 238.271 91.096C238.271 89.44 239.531 88.522 241.259 88.432L243.905 88.288V87.658C243.905 86.218 243.527 85.588 242.015 85.588C241.133 85.588 240.125 85.804 239.243 86.092C239.153 85.768 239.063 85.444 238.955 85.12C239.963 84.688 241.259 84.436 242.339 84.436ZM243.905 89.224L241.619 89.368C240.431 89.44 239.837 90.016 239.837 90.952C239.837 91.996 240.341 92.518 241.475 92.518C242.231 92.518 243.077 92.122 243.905 91.402V89.224ZM254.595 93.418H253.137V87.622C253.137 86.398 252.993 85.642 251.607 85.642C250.779 85.642 249.681 86.074 248.925 86.506V93.418H247.449V84.634H248.889L248.907 85.39L248.961 85.426C249.951 84.796 251.175 84.436 252.021 84.436C254.415 84.436 254.595 85.948 254.595 87.262V93.418ZM260.486 84.436C261.386 84.436 262.376 84.634 263.168 85.138L262.646 86.182C261.782 85.714 261.134 85.624 260.558 85.624C258.83 85.624 258.02 86.992 258.02 89.08C258.02 90.898 258.542 92.392 260.45 92.392C261.278 92.392 261.962 92.23 262.97 91.672L263.42 92.644C262.646 93.22 261.53 93.562 260.378 93.562C257.498 93.562 256.49 91.762 256.49 89.134C256.49 87.28 257.192 84.436 260.486 84.436ZM268.67 85.516C266.978 85.516 266.42 86.884 266.312 88.378H270.794C270.794 86.686 270.29 85.516 268.67 85.516ZM268.634 84.436C272.144 84.436 272.18 87.55 272.18 88.63V89.332H266.294C266.276 90.97 266.834 92.446 268.796 92.446C269.822 92.446 270.614 92.23 271.604 91.816L271.964 92.752C270.92 93.31 269.858 93.562 268.688 93.562C265.556 93.562 264.782 91.492 264.782 89.044C264.782 87.478 265.322 84.436 268.634 84.436ZM280.416 85.318L280.506 85.39C281.226 84.814 282.198 84.436 283.134 84.436C285.654 84.436 286.428 86.452 286.428 88.828C286.428 91.402 285.492 93.58 282.9 93.58C282.216 93.58 281.154 93.472 280.434 92.968V97.162H278.976V84.634H280.398L280.416 85.318ZM280.452 86.542V91.852C280.83 92.14 281.856 92.482 282.648 92.482C283.89 92.482 284.934 91.546 284.934 88.792C284.934 86.362 284.052 85.642 282.738 85.642C282.018 85.642 280.866 86.128 280.452 86.542ZM289.922 84.634L289.976 86.218C289.994 86.218 289.994 86.218 290.012 86.236C290.804 84.976 292.172 84.436 293.324 84.436V85.858C292.406 85.876 291.074 86.128 290.03 87.424V93.418H288.536V84.634H289.922ZM298.211 85.516C296.519 85.516 295.961 86.884 295.853 88.378H300.335C300.335 86.686 299.831 85.516 298.211 85.516ZM298.175 84.436C301.685 84.436 301.721 87.55 301.721 88.63V89.332H295.835C295.817 90.97 296.375 92.446 298.337 92.446C299.363 92.446 300.155 92.23 301.145 91.816L301.505 92.752C300.461 93.31 299.399 93.562 298.229 93.562C295.097 93.562 294.323 91.492 294.323 89.044C294.323 87.478 294.863 84.436 298.175 84.436ZM316.058 93.418H314.582V87.604C314.582 86.344 314.33 85.642 312.98 85.642C312.206 85.642 311.108 85.966 310.442 86.398C310.532 86.794 310.55 87.28 310.55 87.586V93.418H309.092V87.298C309.092 86.146 308.534 85.642 307.67 85.642C306.806 85.642 305.834 86.02 305.06 86.506V93.418H303.602V84.634H305.024L305.042 85.408L305.114 85.462C306.086 84.814 307.184 84.436 308.084 84.436C309.02 84.436 309.758 84.76 310.208 85.498C311.054 84.904 312.368 84.436 313.376 84.436C315.86 84.436 316.058 86.074 316.058 87.37V93.418ZM320.112 93.418H318.654V84.634H320.112V93.418ZM320.382 82.33C320.382 82.834 319.932 83.284 319.392 83.284C318.888 83.284 318.438 82.834 318.438 82.33C318.438 81.79 318.888 81.358 319.392 81.358C319.932 81.358 320.382 81.79 320.382 82.33ZM325.288 93.58C322.894 93.58 322.75 92.068 322.75 90.772V84.634H324.208V90.412C324.208 91.636 324.352 92.374 325.72 92.374C326.386 92.374 327.43 92.014 328.276 91.258V84.634H329.716V93.418H328.33L328.276 92.392L328.24 92.356C327.088 93.382 325.9 93.58 325.288 93.58ZM344.287 93.418H342.811V87.604C342.811 86.344 342.559 85.642 341.209 85.642C340.435 85.642 339.337 85.966 338.671 86.398C338.761 86.794 338.779 87.28 338.779 87.586V93.418H337.321V87.298C337.321 86.146 336.763 85.642 335.899 85.642C335.035 85.642 334.063 86.02 333.289 86.506V93.418H331.831V84.634H333.253L333.271 85.408L333.343 85.462C334.315 84.814 335.413 84.436 336.313 84.436C337.249 84.436 337.987 84.76 338.437 85.498C339.283 84.904 340.597 84.436 341.605 84.436C344.089 84.436 344.287 86.074 344.287 87.37V93.418ZM346.055 92.878L346.523 91.87C347.639 92.374 348.611 92.464 349.241 92.464C350.357 92.464 351.239 92.122 351.239 91.06C351.239 90.124 350.339 89.8 349.349 89.458C347.819 88.918 346.379 88.522 346.379 86.902C346.379 85.21 347.801 84.436 349.565 84.436C350.303 84.436 351.419 84.598 352.193 85.066L351.743 86.092C350.843 85.732 350.159 85.624 349.547 85.624C348.629 85.624 347.765 85.948 347.765 86.92C347.765 87.676 348.917 88.018 349.637 88.252C351.113 88.72 352.661 89.188 352.661 91.042C352.661 92.806 351.203 93.562 349.187 93.562C348.143 93.562 346.847 93.328 346.055 92.878ZM354.261 92.626C354.261 92.122 354.693 91.672 355.251 91.672C355.881 91.672 356.295 92.176 356.295 92.824C356.295 93.814 355.539 95.128 354.477 95.65L354.117 95.182C354.585 94.732 354.873 94.156 354.927 93.508C354.513 93.4 354.261 93.058 354.261 92.626ZM168.797 111.436C170.687 111.436 171.785 112.21 171.785 114.37V120.418H170.489L170.399 119.464C170.399 119.464 170.381 119.446 170.363 119.446C169.013 120.526 167.879 120.544 167.321 120.544C165.287 120.544 164.729 119.14 164.729 118.096C164.729 116.44 165.989 115.522 167.717 115.432L170.363 115.288V114.658C170.363 113.218 169.985 112.588 168.473 112.588C167.591 112.588 166.583 112.804 165.701 113.092C165.611 112.768 165.521 112.444 165.413 112.12C166.421 111.688 167.717 111.436 168.797 111.436ZM170.363 116.224L168.077 116.368C166.889 116.44 166.295 117.016 166.295 117.952C166.295 118.996 166.799 119.518 167.933 119.518C168.689 119.518 169.535 119.122 170.363 118.402V116.224ZM181.053 120.418H179.595V114.622C179.595 113.398 179.451 112.642 178.065 112.642C177.237 112.642 176.139 113.074 175.383 113.506V120.418H173.907V111.634H175.347L175.365 112.39L175.419 112.426C176.409 111.796 177.633 111.436 178.479 111.436C180.873 111.436 181.053 112.948 181.053 114.262V120.418ZM186.494 111.436C187.16 111.436 188.168 111.58 188.996 112.084V107.62H190.472V120.418H189.14L189.068 119.554C189.05 119.554 189.05 119.536 189.032 119.536C188.222 120.184 187.142 120.544 186.224 120.544C183.722 120.544 182.948 118.546 182.948 116.188C182.948 113.506 183.902 111.436 186.494 111.436ZM188.996 118.474V113.218C188.492 112.912 187.538 112.588 186.746 112.588C185.522 112.588 184.46 113.398 184.46 116.188C184.46 118.672 185.36 119.446 186.674 119.446C187.376 119.446 188.474 118.96 188.996 118.474ZM202.5 108.106H204.03V115.954H205.794V117.052H204.03L204.048 120.418H202.608V117.052H196.848V116.026L202.5 108.106ZM202.644 109.906H202.536L198.252 115.954H202.644V109.906ZM215.702 114.316C215.702 117.322 214.676 120.544 211.328 120.544C207.584 120.544 206.828 117.466 206.828 114.37C206.828 111.544 207.602 107.926 211.346 107.926C215.144 107.926 215.702 111.688 215.702 114.316ZM214.226 114.37C214.226 112.408 214.046 109.132 211.346 109.132C208.628 109.132 208.322 112.264 208.322 114.406C208.322 117.142 208.826 119.356 211.346 119.356C213.668 119.356 214.226 116.746 214.226 114.37ZM220.678 120.418V109.528L217.996 109.78V108.79L220.768 108.106H222.136V120.418H220.678ZM227.184 115.288C227.184 111.31 229.002 108.628 229.848 107.584L230.478 107.98C229.938 108.79 228.534 111.328 228.534 115.27C228.534 119.698 229.938 122.146 230.496 123.046L229.848 123.496C229.038 122.47 227.184 119.734 227.184 115.288ZM233.696 115.216L233.822 115.27C234.992 114.064 236.216 112.858 237.386 111.634H239.042C237.944 112.768 236.756 113.956 235.64 115.09C235.82 115.342 236.054 115.576 236.234 115.828L239.312 120.418H237.692C236.702 118.942 235.73 117.448 234.758 115.972L233.768 116.962V120.418H232.292V107.638H233.768V113.218L233.696 115.216ZM243.304 115.288C243.304 119.734 241.45 122.47 240.622 123.496L239.992 123.046C240.55 122.146 241.954 119.698 241.954 115.27C241.954 111.328 240.55 108.772 240.01 107.98L240.64 107.584C241.486 108.628 243.304 111.31 243.304 115.288ZM254.335 111.436C255.235 111.436 256.225 111.634 257.017 112.138L256.495 113.182C255.631 112.714 254.983 112.624 254.407 112.624C252.679 112.624 251.869 113.992 251.869 116.08C251.869 117.898 252.391 119.392 254.299 119.392C255.127 119.392 255.811 119.23 256.819 118.672L257.269 119.644C256.495 120.22 255.379 120.562 254.227 120.562C251.347 120.562 250.339 118.762 250.339 116.134C250.339 114.28 251.041 111.436 254.335 111.436ZM266.406 116.026C266.406 118.276 265.488 120.562 262.41 120.562C259.53 120.562 258.63 118.438 258.63 116.062C258.63 113.722 259.71 111.436 262.59 111.436C265.524 111.436 266.406 113.722 266.406 116.026ZM264.876 116.062C264.876 114.496 264.534 112.57 262.59 112.57C260.646 112.57 260.16 114.406 260.16 116.062C260.16 117.808 260.52 119.428 262.59 119.428C264.498 119.428 264.876 117.646 264.876 116.062ZM275.477 120.418H274.019V114.622C274.019 113.398 273.875 112.642 272.489 112.642C271.661 112.642 270.563 113.074 269.807 113.506V120.418H268.331V111.634H269.771L269.789 112.39L269.843 112.426C270.833 111.796 272.057 111.436 272.903 111.436C275.297 111.436 275.477 112.948 275.477 114.262V120.418ZM278.704 109.564L279.64 109.402V111.634H282.286V112.696H279.622V117.952C279.622 118.798 279.856 119.392 280.846 119.392C281.26 119.392 281.818 119.284 282.502 119.086L282.736 120.076C282.088 120.382 281.26 120.562 280.54 120.562C278.974 120.562 278.182 119.842 278.182 118.402V112.696H276.904V111.922L278.254 111.508L278.704 109.564ZM285.564 111.634L285.618 113.218C285.636 113.218 285.636 113.218 285.654 113.236C286.446 111.976 287.814 111.436 288.966 111.436V112.858C288.048 112.876 286.716 113.128 285.672 114.424V120.418H284.178V111.634H285.564ZM292.088 120.418H290.63V111.634H292.088V120.418ZM292.358 109.33C292.358 109.834 291.908 110.284 291.368 110.284C290.864 110.284 290.414 109.834 290.414 109.33C290.414 108.79 290.864 108.358 291.368 108.358C291.908 108.358 292.358 108.79 292.358 109.33ZM296.148 112.138L296.238 112.21C297.264 111.634 298.146 111.436 298.884 111.436C301.44 111.436 302.196 113.398 302.196 116.062C302.196 118.51 301.296 120.562 298.398 120.562C297.21 120.562 295.86 120.292 294.726 119.77V107.62H296.202V110.212L296.148 112.138ZM298.596 112.66C297.75 112.66 296.85 113.02 296.202 113.398V118.996C296.94 119.32 297.696 119.41 298.308 119.41C299.784 119.41 300.684 118.582 300.684 116.098C300.684 113.308 299.82 112.66 298.596 112.66ZM306.662 120.58C304.268 120.58 304.124 119.068 304.124 117.772V111.634H305.582V117.412C305.582 118.636 305.726 119.374 307.094 119.374C307.76 119.374 308.804 119.014 309.65 118.258V111.634H311.09V120.418H309.704L309.65 119.392L309.614 119.356C308.462 120.382 307.274 120.58 306.662 120.58ZM314.321 109.564L315.257 109.402V111.634H317.903V112.696H315.239V117.952C315.239 118.798 315.473 119.392 316.463 119.392C316.877 119.392 317.435 119.284 318.119 119.086L318.353 120.076C317.705 120.382 316.877 120.562 316.157 120.562C314.591 120.562 313.799 119.842 313.799 118.402V112.696H312.521V111.922L313.871 111.508L314.321 109.564ZM321.577 120.418H320.119V111.634H321.577V120.418ZM321.847 109.33C321.847 109.834 321.397 110.284 320.857 110.284C320.353 110.284 319.903 109.834 319.903 109.33C319.903 108.79 320.353 108.358 320.857 108.358C321.397 108.358 321.847 108.79 321.847 109.33ZM331.81 116.026C331.81 118.276 330.892 120.562 327.814 120.562C324.934 120.562 324.034 118.438 324.034 116.062C324.034 113.722 325.114 111.436 327.994 111.436C330.928 111.436 331.81 113.722 331.81 116.026ZM330.28 116.062C330.28 114.496 329.938 112.57 327.994 112.57C326.05 112.57 325.564 114.406 325.564 116.062C325.564 117.808 325.924 119.428 327.994 119.428C329.902 119.428 330.28 117.646 330.28 116.062ZM340.881 120.418H339.423V114.622C339.423 113.398 339.279 112.642 337.893 112.642C337.065 112.642 335.967 113.074 335.211 113.506V120.418H333.735V111.634H335.175L335.193 112.39L335.247 112.426C336.237 111.796 337.461 111.436 338.307 111.436C340.701 111.436 340.881 112.948 340.881 114.262V120.418Z" fill="black"/>
<g clip-path="url(#clip1_2485_5724)">
<path d="M241.996 0.791018C245.16 0.791018 248.252 1.77768 250.883 3.62624C253.513 5.4748 255.563 8.10222 256.774 11.1763C257.985 14.2503 258.302 17.6329 257.684 20.8963C257.067 24.1596 255.544 27.1573 253.307 29.51C251.07 31.8628 248.219 33.465 245.116 34.1142C242.014 34.7633 238.797 34.4301 235.874 33.1568C232.952 31.8835 230.453 29.7273 228.696 26.9607C226.938 24.1941 226 20.9415 226 17.6142C225.999 15.4047 226.412 13.2166 227.216 11.175C228.019 9.13345 229.197 7.27845 230.683 5.71607C232.168 4.15368 233.932 2.91453 235.873 2.06946C237.814 1.22439 239.895 0.789962 241.996 0.791018Z" fill="#012169"/>
<path d="M243.333 1.84961C246.497 1.84961 249.59 2.83648 252.22 4.68539C254.851 6.5343 256.901 9.1622 258.112 12.2367C259.322 15.3112 259.638 18.6942 259.021 21.9578C258.403 25.2214 256.879 28.219 254.641 30.5715C252.403 32.9239 249.552 34.5255 246.449 35.1737C243.345 35.822 240.129 35.4877 237.206 34.2131C234.283 32.9386 231.786 30.7811 230.029 28.0134C228.272 25.2458 227.335 21.9924 227.337 18.6648C227.339 14.2044 229.025 9.9274 232.025 6.77417C235.024 3.62095 239.092 1.84961 243.333 1.84961Z" fill="url(#paint0_linear_2485_5724)"/>
<path d="M242.385 25.094C241.026 25.0802 239.692 24.7072 238.505 24.0094L238.986 22.7079C240.169 23.3395 241.479 23.6645 242.806 23.6559C244.753 23.6559 245.953 22.9489 245.953 20.9886C245.953 19.3095 244.753 18.7793 243.134 18.3133C240.842 17.6545 238.742 17.0359 238.742 14.3606C238.742 12.0388 240.208 10.5605 242.424 10.3436V8.29492H243.569V10.2793C244.654 10.3271 245.717 10.6174 246.686 11.1309L246.205 12.4083C245.213 11.9502 244.141 11.7175 243.058 11.7254C241.53 11.7254 240.361 12.577 240.361 14.3044C240.361 15.871 241.889 16.3129 243.417 16.7146C245.349 17.293 247.618 17.9277 247.618 20.9806C247.618 23.5595 245.922 24.853 243.6 25.0619V27.0945H242.385V25.094Z" fill="white"/>
<path d="M258.74 17.6621C262.602 17.6621 266.377 18.867 269.587 21.1243C272.798 23.3816 275.299 26.5899 276.775 30.343C278.251 34.0961 278.636 38.2255 277.88 42.2084C277.123 46.1913 275.261 49.8488 272.527 52.7179C269.794 55.587 266.313 57.5388 262.524 58.3263C258.736 59.1138 254.81 58.7016 251.245 57.1418C247.679 55.582 244.633 52.9448 242.493 49.5639C240.353 46.183 239.215 42.2104 239.223 38.1488C239.233 32.7117 241.294 27.5009 244.953 23.6601C248.612 19.8192 253.57 17.6621 258.74 17.6621Z" fill="#780032"/>
<path d="M261.017 18.3672C264.877 18.3672 268.651 19.5711 271.86 21.8266C275.07 24.0821 277.571 27.288 279.049 31.0388C280.526 34.7896 280.912 38.9168 280.159 42.8987C279.406 46.8805 277.547 50.538 274.818 53.4088C272.088 56.2795 268.611 58.2345 264.825 59.0265C261.039 59.8186 257.114 59.4121 253.548 57.8584C249.982 56.3048 246.933 53.6738 244.789 50.2982C242.644 46.9226 241.5 42.9539 241.5 38.8941C241.499 36.1981 242.003 33.5284 242.983 31.0375C243.964 28.5466 245.401 26.2833 247.214 24.377C249.026 22.4707 251.178 20.9588 253.547 19.9276C255.915 18.8964 258.454 18.3661 261.017 18.3672Z" fill="#E31837"/>
<path d="M259.856 46.7369C258.194 46.7164 256.564 46.2608 255.112 45.4113L255.7 43.8045C257.12 44.5644 258.69 44.9633 260.283 44.9695C262.667 44.9775 264.194 44.1178 264.194 41.7639C264.194 39.7152 262.728 39.0725 260.757 38.5021C257.969 37.6987 255.41 36.8953 255.41 33.6817C255.41 30.8617 257.205 29.0461 259.924 28.7488V26.2422H261.376V28.6524C262.704 28.6985 264.007 29.0466 265.195 29.6727L264.607 31.2313C263.4 30.689 262.1 30.4155 260.788 30.4279C258.916 30.4279 257.48 31.4804 257.48 33.5772C257.48 35.4893 259.382 36.0437 261.2 36.5418C263.545 37.2407 266.318 38.02 266.318 41.7398C266.318 44.8891 264.248 46.4557 261.399 46.7209V49.1873H259.947V46.7771L259.856 46.7369Z" fill="white"/>
</g>
<path d="M32.013 87.92V86.804H35.577V92.672C34.479 93.374 32.985 93.644 31.833 93.644C27.891 93.644 26.541 91.124 26.541 87.452C26.541 84.806 27.675 80.972 32.139 80.972C33.453 80.972 34.713 81.314 35.487 81.854L34.929 82.97C33.957 82.34 32.859 82.178 32.175 82.178C29.511 82.178 28.143 84.23 28.143 87.47C28.143 90.134 28.881 92.402 31.959 92.402C32.409 92.402 33.507 92.276 34.173 91.898V87.92H32.013ZM39.3679 84.716L39.4219 86.3C39.4399 86.3 39.4399 86.3 39.4579 86.318C40.2499 85.058 41.6179 84.518 42.7699 84.518V85.94C41.8519 85.958 40.5199 86.21 39.4759 87.506V93.5H37.9819V84.716H39.3679ZM51.5443 89.108C51.5443 91.358 50.6263 93.644 47.5483 93.644C44.6683 93.644 43.7683 91.52 43.7683 89.144C43.7683 86.804 44.8483 84.518 47.7283 84.518C50.6623 84.518 51.5443 86.804 51.5443 89.108ZM50.0143 89.144C50.0143 87.578 49.6723 85.652 47.7283 85.652C45.7843 85.652 45.2983 87.488 45.2983 89.144C45.2983 90.89 45.6583 92.51 47.7283 92.51C49.6363 92.51 50.0143 90.728 50.0143 89.144ZM53.1273 92.96L53.5953 91.952C54.7113 92.456 55.6833 92.546 56.3133 92.546C57.4293 92.546 58.3113 92.204 58.3113 91.142C58.3113 90.206 57.4113 89.882 56.4213 89.54C54.8913 89 53.4513 88.604 53.4513 86.984C53.4513 85.292 54.8733 84.518 56.6373 84.518C57.3753 84.518 58.4913 84.68 59.2653 85.148L58.8153 86.174C57.9153 85.814 57.2313 85.706 56.6193 85.706C55.7013 85.706 54.8373 86.03 54.8373 87.002C54.8373 87.758 55.9893 88.1 56.7093 88.334C58.1853 88.802 59.7333 89.27 59.7333 91.124C59.7333 92.888 58.2753 93.644 56.2593 93.644C55.2153 93.644 53.9193 93.41 53.1273 92.96ZM61.1718 92.96L61.6398 91.952C62.7558 92.456 63.7278 92.546 64.3578 92.546C65.4738 92.546 66.3558 92.204 66.3558 91.142C66.3558 90.206 65.4558 89.882 64.4658 89.54C62.9358 89 61.4958 88.604 61.4958 86.984C61.4958 85.292 62.9178 84.518 64.6818 84.518C65.4198 84.518 66.5358 84.68 67.3098 85.148L66.8598 86.174C65.9598 85.814 65.2758 85.706 64.6638 85.706C63.7458 85.706 62.8818 86.03 62.8818 87.002C62.8818 87.758 64.0338 88.1 64.7538 88.334C66.2298 88.802 67.7778 89.27 67.7778 91.124C67.7778 92.888 66.3198 93.644 64.3038 93.644C63.2598 93.644 61.9638 93.41 61.1718 92.96ZM22.3534 120.5H20.8954V111.716H22.3534V120.5ZM22.6234 109.412C22.6234 109.916 22.1734 110.366 21.6334 110.366C21.1294 110.366 20.6794 109.916 20.6794 109.412C20.6794 108.872 21.1294 108.44 21.6334 108.44C22.1734 108.44 22.6234 108.872 22.6234 109.412ZM32.137 120.5H30.679V114.704C30.679 113.48 30.535 112.724 29.149 112.724C28.321 112.724 27.223 113.156 26.467 113.588V120.5H24.991V111.716H26.431L26.449 112.472L26.503 112.508C27.493 111.878 28.717 111.518 29.563 111.518C31.957 111.518 32.137 113.03 32.137 114.344V120.5ZM38.0283 111.518C38.9283 111.518 39.9183 111.716 40.7103 112.22L40.1883 113.264C39.3243 112.796 38.6763 112.706 38.1003 112.706C36.3723 112.706 35.5623 114.074 35.5623 116.162C35.5623 117.98 36.0843 119.474 37.9923 119.474C38.8203 119.474 39.5043 119.312 40.5123 118.754L40.9623 119.726C40.1883 120.302 39.0723 120.644 37.9203 120.644C35.0403 120.644 34.0323 118.844 34.0323 116.216C34.0323 114.362 34.7343 111.518 38.0283 111.518ZM50.0997 116.108C50.0997 118.358 49.1817 120.644 46.1037 120.644C43.2237 120.644 42.3237 118.52 42.3237 116.144C42.3237 113.804 43.4037 111.518 46.2837 111.518C49.2177 111.518 50.0997 113.804 50.0997 116.108ZM48.5697 116.144C48.5697 114.578 48.2277 112.652 46.2837 112.652C44.3397 112.652 43.8537 114.488 43.8537 116.144C43.8537 117.89 44.2137 119.51 46.2837 119.51C48.1917 119.51 48.5697 117.728 48.5697 116.144ZM64.4807 120.5H63.0047V114.686C63.0047 113.426 62.7527 112.724 61.4027 112.724C60.6287 112.724 59.5307 113.048 58.8647 113.48C58.9547 113.876 58.9727 114.362 58.9727 114.668V120.5H57.5147V114.38C57.5147 113.228 56.9567 112.724 56.0927 112.724C55.2287 112.724 54.2567 113.102 53.4827 113.588V120.5H52.0247V111.716H53.4467L53.4647 112.49L53.5367 112.544C54.5087 111.896 55.6067 111.518 56.5067 111.518C57.4427 111.518 58.1807 111.842 58.6307 112.58C59.4767 111.986 60.7907 111.518 61.7987 111.518C64.2827 111.518 64.4807 113.156 64.4807 114.452V120.5ZM70.2987 112.598C68.6067 112.598 68.0487 113.966 67.9407 115.46H72.4227C72.4227 113.768 71.9187 112.598 70.2987 112.598ZM70.2627 111.518C73.7727 111.518 73.8087 114.632 73.8087 115.712V116.414H67.9227C67.9047 118.052 68.4627 119.528 70.4247 119.528C71.4507 119.528 72.2427 119.312 73.2327 118.898L73.5927 119.834C72.5487 120.392 71.4867 120.644 70.3167 120.644C67.1847 120.644 66.4107 118.574 66.4107 116.126C66.4107 114.56 66.9507 111.518 70.2627 111.518Z" fill="black"/>
<g clip-path="url(#clip2_2485_5724)">
<path fill-rule="evenodd" clip-rule="evenodd" d="M55.5537 46.1972V56.4228L68.0005 47.4866V37.293L55.5537 46.1972Z" fill="#2F67B0"/>
<path fill-rule="evenodd" clip-rule="evenodd" d="M17.1343 46.7397L55.5534 56.4546V46.2291L17.1343 36.5078V46.7397Z" fill="#80A8E0"/>
<path fill-rule="evenodd" clip-rule="evenodd" d="M55.5534 46.2859L17.1343 36.5391V36.9284L55.5534 46.6752V46.2859Z" fill="#344E87"/>
<path fill-rule="evenodd" clip-rule="evenodd" d="M17.1343 36.5084L55.5534 46.2297L68.0002 37.2935L29.5811 27.5723L17.1343 36.5084Z" fill="#99B8E1"/>
<path fill-rule="evenodd" clip-rule="evenodd" d="M20.824 35.7934L55.2219 44.5189L64.3112 38.0083L29.9006 29.3147L20.824 35.7934ZM55.2921 44.9402H55.2027L19.8921 35.9147L29.824 28.8359L65.2432 37.8296L55.2921 44.9402Z" fill="#E4EDF8"/>
<path fill-rule="evenodd" clip-rule="evenodd" d="M55.5534 50.0418V49.5567L17.1343 39.8418V40.2886" fill="#344E87"/>
<path fill-rule="evenodd" clip-rule="evenodd" d="M55.5534 53.3342V52.8555L17.1343 43.1406V43.5874" fill="#344E87"/>
<path fill-rule="evenodd" clip-rule="evenodd" d="M55.5534 56.4559V56.0665L17.1343 46.2559V46.741" fill="#344E87"/>
<path fill-rule="evenodd" clip-rule="evenodd" d="M32.1597 50.5447L40.1384 52.5553V42.2979L32.1597 40.2617V50.5447Z" fill="#C41230"/>
<path fill-rule="evenodd" clip-rule="evenodd" d="M44.1855 31.293L32.1919 40.2611L40.1706 42.2972L52.1642 33.3036L44.1855 31.293Z" fill="#E31837"/>
<path fill-rule="evenodd" clip-rule="evenodd" d="M55.5537 46.231V46.7097L68.0005 37.7735V37.3203L55.5537 46.231ZM55.5537 49.5565V50.0416L68.0005 41.1054V40.6267L55.5537 49.5565ZM55.5537 52.8565V53.3352L68.0005 44.399V43.9203L55.5537 52.8565ZM55.5537 56.048V56.4692L68.0005 47.5331V47.0544L55.5537 56.048Z" fill="#012169"/>
<path fill-rule="evenodd" clip-rule="evenodd" d="M76.5152 35.8523L64.0684 44.8204V34.5949L76.5152 25.6523V35.8523Z" fill="#2F67B0"/>
<path fill-rule="evenodd" clip-rule="evenodd" d="M64.0684 34.5949V35.0736L76.5152 26.1375V25.6523L64.0684 34.5949Z" fill="#012169"/>
<path fill-rule="evenodd" clip-rule="evenodd" d="M25.6489 35.103L64.0681 44.8179V34.5924L25.6489 24.8711V35.103Z" fill="#80A8E0"/>
<path fill-rule="evenodd" clip-rule="evenodd" d="M64.0681 34.6511L25.6489 24.9043V25.2937L64.0681 35.0405V34.6511Z" fill="#344E87"/>
<path fill-rule="evenodd" clip-rule="evenodd" d="M25.6489 24.8737L64.0681 34.5949L76.5149 25.6524L38.0957 15.9375L25.6489 24.8737Z" fill="#99B8E1"/>
<path fill-rule="evenodd" clip-rule="evenodd" d="M29.3388 24.1572L63.7303 32.8827L72.8324 26.3402L38.4281 17.6785L29.3388 24.1572ZM63.8069 33.304H63.7175L28.3877 24.3678L38.3388 17.1934L73.7579 26.1934L63.8069 33.304Z" fill="#E4EDF8"/>
<path fill-rule="evenodd" clip-rule="evenodd" d="M64.0681 38.4299V37.9512L25.6489 28.2363V28.6831" fill="#344E87"/>
<path fill-rule="evenodd" clip-rule="evenodd" d="M64.0681 41.7293V41.2506L25.6489 31.5293V31.9825" fill="#344E87"/>
<path fill-rule="evenodd" clip-rule="evenodd" d="M64.0681 44.8504V44.4291L25.6489 34.6504V35.1291" fill="#344E87"/>
<path fill-rule="evenodd" clip-rule="evenodd" d="M40.6748 38.9399L48.6535 40.9505V30.6612L40.6748 28.625V38.9399Z" fill="#C41230"/>
<path fill-rule="evenodd" clip-rule="evenodd" d="M40.7065 28.6243L48.6853 30.6605L60.7108 21.6669L52.7065 19.6562L40.7065 28.6243Z" fill="#E31837"/>
<path fill-rule="evenodd" clip-rule="evenodd" d="M61.3105 22.6574V32.8829L73.7318 23.9148V13.7148L61.3105 22.6574Z" fill="#2F67B0"/>
<path fill-rule="evenodd" clip-rule="evenodd" d="M73.7574 13.7148L61.3105 22.651V23.1297L73.7574 14.2127V13.7148ZM73.7574 17.0468L61.3105 25.9829V26.468L73.7574 17.5319V17.0468ZM73.7574 20.3468L61.3105 29.2829V29.768L73.7574 20.8319V20.3468ZM73.7574 23.4042L61.3105 32.4616V32.8829L73.7574 23.9468V23.4042Z" fill="#012169"/>
<path fill-rule="evenodd" clip-rule="evenodd" d="M64.0747 34.5927V35.0714L76.5215 26.1352V25.7012L64.0747 34.5927ZM64.0747 37.9501V38.4288L76.5215 29.4927V29.0139L64.0747 37.9501ZM64.0747 41.2501V41.7288L76.5215 32.7927V32.3139L64.0747 41.2501ZM64.0747 44.4416V44.8501L76.496 35.9139V35.4033L64.0747 44.4416Z" fill="#012169"/>
<path fill-rule="evenodd" clip-rule="evenodd" d="M22.8916 23.1612L61.3107 32.8825V22.657L22.8916 12.9102V23.1612Z" fill="#80A8E0"/>
<path fill-rule="evenodd" clip-rule="evenodd" d="M22.8916 12.9106L61.3107 22.6574L73.7576 13.7149L35.3384 4L22.8916 12.9106Z" fill="#99B8E1"/>
<path fill-rule="evenodd" clip-rule="evenodd" d="M61.3107 26.4612V25.9825L22.8916 16.2676V16.7144" fill="#344E87"/>
<path fill-rule="evenodd" clip-rule="evenodd" d="M61.3107 29.762V29.2833L22.8916 19.5684V20.0152" fill="#344E87"/>
<path fill-rule="evenodd" clip-rule="evenodd" d="M61.3107 32.8836V32.4623L22.8916 22.6836V23.1623" fill="#344E87"/>
<path fill-rule="evenodd" clip-rule="evenodd" d="M22.8916 13.357L61.3107 23.1038V22.657L22.8916 12.9102V13.357Z" fill="#344E87"/>
<path fill-rule="evenodd" clip-rule="evenodd" d="M26.581 12.2156L60.9852 20.9476L70.0682 14.4369L35.6448 5.7433L26.581 12.2156ZM61.0491 21.3688L60.9597 21.3369L25.6235 12.4007L35.581 5.27734L71.0001 14.2582L61.0491 21.3688Z" fill="#E4EDF8"/>
<path fill-rule="evenodd" clip-rule="evenodd" d="M37.917 26.9723L45.8957 28.9829V18.7574L37.917 16.7148V26.9723Z" fill="#C41230"/>
<path fill-rule="evenodd" clip-rule="evenodd" d="M48.2639 10.2995C44.6065 10.2995 41.549 11.5761 41.549 13.1144C41.549 14.6527 44.6384 15.9357 48.2639 15.9357C51.8895 15.9357 54.9852 14.6591 54.9852 13.1144C54.9852 11.5697 51.8958 10.2995 48.2639 10.2995ZM48.2639 16.2931C44.2746 16.2931 41.1597 14.8889 41.1597 13.1016C41.1597 11.3144 44.2746 9.91016 48.2639 9.91016C52.2533 9.91016 55.3746 11.3208 55.3746 13.1016C55.3746 14.8825 52.2533 16.2931 48.2639 16.2931Z" fill="#E4EDF8"/>
<path fill-rule="evenodd" clip-rule="evenodd" d="M50.1852 7.74609L37.8916 16.7142L45.8959 18.7567L58.3108 9.82056L50.1852 7.74609Z" fill="#E31837"/>
</g>
<defs>
<linearGradient id="paint0_linear_2485_5724" x1="242.706" y1="18.1185" x2="268.272" y2="38.4047" gradientUnits="userSpaceOnUse">
<stop stop-color="#0052C2"/>
<stop offset="1"/>
</linearGradient>
<clipPath id="clip0_2485_5724">
<rect width="64" height="43.9596" fill="white" transform="translate(440 13)"/>
</clipPath>
<clipPath id="clip1_2485_5724">
<rect width="55" height="59.4516" fill="white" transform="translate(226)"/>
</clipPath>
<clipPath id="clip2_2485_5724">
<rect width="60" height="52.9787" fill="white" transform="translate(17 4)"/>
</clipPath>
</defs>
</svg>
